<svg width="260" height="57" viewBox="0 0 260 57" fill="none" xmlns="http://www.w3.org/2000/svg">
<path d="M34.856 42.176L36.152 41.24C37.784 40.28 38.936 39.8 39.608 39.8C41.096 39.8 42.704 41.144 44.432 43.832C45.488 45.512 46.016 46.856 46.016 47.864C46.016 48.872 45.68 49.712 45.008 50.384C44.384 51.056 43.64 51.656 42.776 52.184C41.912 52.712 41.072 53.216 40.256 53.696C39.488 54.176 37.88 54.8 35.432 55.568C32.984 56.336 30.608 56.72 28.304 56.72C26.048 56.72 23.744 56.432 21.392 55.856C19.088 55.232 16.688 54.224 14.192 52.832C11.744 51.392 9.536 49.664 7.568 47.648C5.6 45.584 3.968 42.968 2.672 39.8C1.424 36.584 0.8 33.104 0.8 29.36C0.8 25.616 1.424 22.232 2.672 19.208C3.92 16.136 5.504 13.616 7.424 11.648C9.392 9.632 11.624 7.952 14.12 6.608C18.824 4.016 23.552 2.72 28.304 2.72C30.56 2.72 32.84 3.08 35.144 3.8C37.496 4.472 39.272 5.168 40.472 5.888L42.2 6.896C43.064 7.424 43.736 7.856 44.216 8.192C45.464 9.2 46.088 10.352 46.088 11.648C46.088 12.896 45.584 14.216 44.576 15.608C42.704 18.2 41.024 19.496 39.536 19.496C38.672 19.496 37.448 18.968 35.864 17.912C33.848 16.28 31.16 15.464 27.8 15.464C24.68 15.464 21.608 16.544 18.584 18.704C17.144 19.76 15.944 21.248 14.984 23.168C14.024 25.088 13.544 27.272 13.544 29.72C13.544 32.12 14.024 34.28 14.984 36.2C15.944 38.12 17.168 39.632 18.656 40.736C21.584 42.848 24.632 43.904 27.8 43.904C29.288 43.904 30.68 43.712 31.976 43.328C33.32 42.944 34.28 42.56 34.856 42.176ZM49.6672 37.064C49.6672 31.304 51.6832 26.552 55.7152 22.808C59.7472 19.064 64.3552 17.192 69.5392 17.192C74.7232 17.192 79.3072 19.064 83.2912 22.808C87.2752 26.504 89.2672 31.232 89.2672 36.992C89.2672 40.976 88.2352 44.528 86.1712 47.648C84.1072 50.72 81.5872 53 78.6112 54.488C75.6832 55.928 72.6352 56.648 69.4672 56.648C66.2992 56.648 63.2272 55.88 60.2512 54.344C57.2752 52.76 54.7552 50.456 52.6912 47.432C50.6752 44.36 49.6672 40.904 49.6672 37.064ZM64.7152 42.248C66.2512 43.4 67.8112 43.976 69.3952 43.976C70.9792 43.976 72.5632 43.376 74.1472 42.176C75.7312 40.976 76.5232 39.2 76.5232 36.848C76.5232 34.496 75.7792 32.744 74.2912 31.592C72.8032 30.44 71.1952 29.864 69.4672 29.864C67.7392 29.864 66.1312 30.464 64.6432 31.664C63.1552 32.864 62.4112 34.64 62.4112 36.992C62.4112 39.296 63.1792 41.048 64.7152 42.248ZM119.335 2.288C119.719 1.568 120.367 1.064 121.279 0.775999C122.191 0.487997 123.391 0.343996 124.879 0.343996C126.415 0.343996 127.639 0.487997 128.551 0.775999C129.463 1.064 130.087 1.568 130.423 2.288C130.807 3.008 131.023 3.656 131.071 4.232C131.167 4.76 131.215 5.576 131.215 6.68V49.664C131.215 50.768 131.167 51.608 131.071 52.184C131.023 52.712 130.807 53.312 130.423 53.984C129.703 55.28 127.663 55.928 124.303 55.928C120.991 55.928 119.143 54.752 118.759 52.4C116.743 54.704 113.935 55.856 110.335 55.856C106.015 55.856 102.079 53.984 98.5271 50.24C94.9751 46.448 93.1991 42.056 93.1991 37.064C93.1991 32.024 94.9751 27.608 98.5271 23.816C102.127 20.024 106.063 18.128 110.335 18.128C113.887 18.128 116.647 19.328 118.615 21.728V6.608C118.615 5.504 118.639 4.688 118.687 4.16C118.783 3.584 118.999 2.96 119.335 2.288ZM107.671 41.384C108.919 42.68 110.431 43.328 112.207 43.328C113.983 43.328 115.447 42.68 116.599 41.384C117.799 40.088 118.399 38.672 118.399 37.136C118.399 35.552 117.823 34.088 116.671 32.744C115.567 31.4 114.055 30.728 112.135 30.728C110.215 30.728 108.679 31.4 107.527 32.744C106.375 34.04 105.799 35.48 105.799 37.064C105.799 38.648 106.423 40.088 107.671 41.384ZM161.574 22.088C161.862 19.4 163.758 18.056 167.262 18.056C169.134 18.056 170.526 18.2 171.438 18.488C172.35 18.776 172.974 19.28 173.31 20C173.694 20.72 173.91 21.368 173.958 21.944C174.054 22.472 174.102 23.288 174.102 24.392V49.592C174.102 50.696 174.054 51.536 173.958 52.112C173.91 52.64 173.718 53.264 173.382 53.984C172.71 55.232 171.054 55.856 168.414 55.856C165.822 55.856 164.07 55.544 163.158 54.92C162.294 54.248 161.79 53.288 161.646 52.04C159.87 54.584 156.894 55.856 152.718 55.856C148.59 55.856 144.75 53.96 141.198 50.168C137.646 46.376 135.87 41.984 135.87 36.992C135.87 31.952 137.646 27.56 141.198 23.816C144.798 20.024 148.734 18.128 153.006 18.128C154.638 18.128 156.126 18.416 157.47 18.992C158.814 19.568 159.75 20.12 160.278 20.648C160.806 21.128 161.238 21.608 161.574 22.088ZM148.47 37.064C148.47 38.648 149.094 40.088 150.342 41.384C151.59 42.632 153.102 43.256 154.878 43.256C156.654 43.256 158.118 42.608 159.27 41.312C160.47 40.016 161.07 38.6 161.07 37.064C161.07 35.48 160.494 34.016 159.342 32.672C158.238 31.328 156.726 30.656 154.806 30.656C152.934 30.656 151.398 31.328 150.198 32.672C149.046 34.016 148.47 35.48 148.47 37.064ZM217.018 18.92C219.514 20.408 220.762 21.992 220.762 23.672C220.762 24.632 220.282 25.952 219.322 27.632L204.418 53.192C203.938 54.008 203.17 54.752 202.114 55.424C201.058 56.048 200.002 56.36 198.946 56.36C197.938 56.36 196.954 56.12 195.994 55.64C195.082 55.112 194.434 54.584 194.05 54.056L193.402 53.264L178.426 27.632C177.466 26.048 176.986 24.752 176.986 23.744C176.986 22.016 178.234 20.408 180.73 18.92C182.554 17.864 183.994 17.336 185.05 17.336C186.106 17.336 186.922 17.672 187.498 18.344C188.122 18.968 188.77 19.928 189.442 21.224L198.874 39.368L208.306 21.224C208.834 20.312 209.218 19.664 209.458 19.28C209.746 18.848 210.178 18.44 210.754 18.056C211.33 17.624 212.098 17.408 213.058 17.408C214.018 17.408 215.338 17.912 217.018 18.92ZM247.145 22.088C247.433 19.4 249.329 18.056 252.833 18.056C254.705 18.056 256.097 18.2 257.009 18.488C257.921 18.776 258.545 19.28 258.881 20C259.265 20.72 259.481 21.368 259.529 21.944C259.625 22.472 259.673 23.288 259.673 24.392V49.592C259.673 50.696 259.625 51.536 259.529 52.112C259.481 52.64 259.289 53.264 258.953 53.984C258.281 55.232 256.625 55.856 253.985 55.856C251.393 55.856 249.641 55.544 248.729 54.92C247.865 54.248 247.361 53.288 247.217 52.04C245.441 54.584 242.465 55.856 238.289 55.856C234.161 55.856 230.321 53.96 226.769 50.168C223.217 46.376 221.441 41.984 221.441 36.992C221.441 31.952 223.217 27.56 226.769 23.816C230.369 20.024 234.305 18.128 238.577 18.128C240.209 18.128 241.697 18.416 243.041 18.992C244.385 19.568 245.321 20.12 245.849 20.648C246.377 21.128 246.809 21.608 247.145 22.088ZM234.041 37.064C234.041 38.648 234.665 40.088 235.913 41.384C237.161 42.632 238.673 43.256 240.449 43.256C242.225 43.256 243.689 42.608 244.841 41.312C246.041 40.016 246.641 38.6 246.641 37.064C246.641 35.48 246.065 34.016 244.913 32.672C243.809 31.328 242.297 30.656 240.377 30.656C238.505 30.656 236.969 31.328 235.769 32.672C234.617 34.016 234.041 35.48 234.041 37.064Z" fill="black"/>
</svg>
