<svg width="25" height="25" viewBox="0 0 25 25" fill="none" xmlns="http://www.w3.org/2000/svg">
<g clip-path="url(#clip0)">
<path d="M12.5056 6.88477C8.95651 6.88477 6.09378 9.38965 6.09378 12.4951C6.09378 15.6006 8.95651 18.1055 12.5056 18.1055C16.0547 18.1055 18.9174 15.6006 18.9174 12.4951C18.9174 9.38965 16.0547 6.88477 12.5056 6.88477ZM12.5056 16.1426C10.2121 16.1426 8.33709 14.5068 8.33709 12.4951C8.33709 10.4834 10.2065 8.84766 12.5056 8.84766C14.8047 8.84766 16.6741 10.4834 16.6741 12.4951C16.6741 14.5068 14.7991 16.1426 12.5056 16.1426ZM20.6753 6.65527C20.6753 7.38281 20.0056 7.96387 19.1797 7.96387C18.3482 7.96387 17.6842 7.37793 17.6842 6.65527C17.6842 5.93262 18.3538 5.34668 19.1797 5.34668C20.0056 5.34668 20.6753 5.93262 20.6753 6.65527ZM24.9219 7.9834C24.827 6.23047 24.3695 4.67773 22.9018 3.39844C21.4398 2.11914 19.6652 1.71875 17.6619 1.63086C15.5971 1.52832 9.40852 1.52832 7.34378 1.63086C5.34602 1.71387 3.57146 2.11426 2.10383 3.39355C0.636196 4.67285 0.184187 6.22559 0.0837402 7.97852C-0.0334473 9.78516 -0.0334473 15.2002 0.0837402 17.0068C0.178606 18.7598 0.636196 20.3125 2.10383 21.5918C3.57146 22.8711 5.34044 23.2715 7.34378 23.3594C9.40852 23.4619 15.5971 23.4619 17.6619 23.3594C19.6652 23.2764 21.4398 22.876 22.9018 21.5918C24.3639 20.3125 24.8215 18.7598 24.9219 17.0068C25.0391 15.2002 25.0391 9.79004 24.9219 7.9834ZM22.2545 18.9453C21.8192 19.9023 20.9766 20.6396 19.8773 21.0254C18.2311 21.5967 14.3248 21.4648 12.5056 21.4648C10.6864 21.4648 6.77459 21.5918 5.13396 21.0254C4.04021 20.6445 3.19758 19.9072 2.75673 18.9453C2.10383 17.5049 2.2545 14.0869 2.2545 12.4951C2.2545 10.9033 2.10941 7.48047 2.75673 6.04492C3.192 5.08789 4.03463 4.35059 5.13396 3.96484C6.78017 3.39355 10.6864 3.52539 12.5056 3.52539C14.3248 3.52539 18.2366 3.39844 19.8773 3.96484C20.971 4.3457 21.8137 5.08301 22.2545 6.04492C22.9074 7.48535 22.7567 10.9033 22.7567 12.4951C22.7567 14.0869 22.9074 17.5098 22.2545 18.9453Z" fill="white"/>
</g>
<defs>
<clipPath id="clip0">
<rect width="25" height="25" fill="white"/>
</clipPath>
</defs>
</svg>
