<svg width="25" height="25" viewBox="0 0 25 25" fill="none" xmlns="http://www.w3.org/2000/svg">
<path d="M5.59598 21.8749H0.412946V7.27039H5.59598V21.8749ZM3.00167 5.2782C1.34431 5.2782 0 4.07703 0 2.62683C1.18627e-08 1.93025 0.316247 1.2622 0.87917 0.76964C1.44209 0.277082 2.20558 0.000366211 3.00167 0.000366211C3.79777 0.000366211 4.56125 0.277082 5.12418 0.76964C5.6871 1.2622 6.00335 1.93025 6.00335 2.62683C6.00335 4.07703 4.65848 5.2782 3.00167 5.2782ZM24.9944 21.8749H19.8225V14.7655C19.8225 13.0712 19.7835 10.8983 17.1278 10.8983C14.433 10.8983 14.0201 12.7391 14.0201 14.6434V21.8749H8.84263V7.27039H13.8136V9.26257H13.8862C14.5781 8.11511 16.2684 6.90417 18.7902 6.90417C24.0357 6.90417 25 9.92664 25 13.8524V21.8749H24.9944Z" fill="white"/>
</svg>
