<svg width="3000" height="3000" viewBox="0 0 3000 3000" fill="none" xmlns="http://www.w3.org/2000/svg">
<path d="M1833 1685H615V2442H1833V1685Z" fill="#D1EAFF"/>
<path d="M496 2258.42C496 2290.13 488.906 2352 457.426 2352C425.946 2352 382 2290.13 382 2258.42C382 2226.71 407.52 2201 439 2201C470.48 2201 496 2226.71 496 2258.42Z" fill="black"/>
<path d="M656 2258.42C656 2290.13 648.844 2352 617.088 2352C585.331 2352 541 2290.13 541 2258.42C541 2226.71 566.744 2201 598.5 2201C630.256 2201 656 2226.71 656 2258.42Z" fill="black"/>
<path d="M815 2258.42C815 2290.13 807.906 2352 776.426 2352C744.946 2352 701 2290.13 701 2258.42C701 2226.71 726.52 2201 758 2201C789.48 2201 815 2226.71 815 2258.42Z" fill="black"/>
<path d="M341 719H1345.21C1354.57 698.688 1356.58 651.895 1289.73 627.22C1222.87 602.545 1166.88 637.501 1147.25 658.064C1140.85 592.614 1099.57 459.307 985.585 449.678C871.601 440.048 835.799 535.44 832.145 584.339C727.477 424.852 636.007 546.473 603.355 627.22C494.303 585.693 383.013 671.104 341 719Z" fill="#D1EAFF"/>
<path d="M2921 988H1771.48C1760.77 956.93 1758.47 885.354 1835 847.61C1911.53 809.866 1975.61 863.337 1998.09 894.79C2005.41 794.676 2052.67 590.766 2183.14 576.036C2313.62 561.307 2354.61 707.221 2358.79 782.018C2478.6 538.063 2583.31 724.098 2620.68 847.61C2745.51 784.09 2872.91 914.737 2921 988Z" fill="#D1EAFF"/>
<path d="M1060.23 2564.21L1113.25 1087.45H2753.05V2503.92L2428.5 2515.49H2247.22H2247.1H2246.98L1060.23 2564.21Z" stroke="black" stroke-width="12"/>
<path d="M2306 936.5H2835.19M2306 877H2644.74H2306Z" stroke="black" stroke-width="12" stroke-linecap="round"/>
<path d="M370 625H688M370 517H860H370Z" stroke="black" stroke-width="12" stroke-linecap="round"/>
<path d="M1107.46 1081.45H2759.05V1377.13H1096.78L1107.46 1081.45Z" fill="black"/>
<path d="M1237.43 1304.82C1276.25 1304.82 1307.71 1271.01 1307.71 1229.29C1307.71 1187.57 1276.25 1153.76 1237.43 1153.76C1198.61 1153.76 1167.15 1187.57 1167.15 1229.29C1167.15 1271.01 1198.61 1304.82 1237.43 1304.82Z" fill="white"/>
<path d="M1420.16 1304.82C1458.98 1304.82 1490.44 1271.01 1490.44 1229.29C1490.44 1187.57 1458.98 1153.76 1420.16 1153.76C1381.34 1153.76 1349.88 1187.57 1349.88 1229.29C1349.88 1271.01 1381.34 1304.82 1420.16 1304.82Z" fill="white"/>
<path d="M1602.9 1304.82C1641.72 1304.82 1673.18 1271.01 1673.18 1229.29C1673.18 1187.57 1641.72 1153.76 1602.9 1153.76C1564.08 1153.76 1532.62 1187.57 1532.62 1229.29C1532.62 1271.01 1564.08 1304.82 1602.9 1304.82Z" fill="white"/>
<path d="M756.057 783.188L754.257 780.994H751.419H478.997C362.466 780.994 268 686.527 268 569.997C268 453.466 362.467 359 478.997 359H779.003C895.533 359 990 453.467 990 569.997V633.14C990 714.797 923.804 780.994 842.146 780.994H835.259L836.203 787.816L851.688 899.743L756.057 783.188Z" stroke="black" stroke-width="12"/>
<path d="M1405 367.534L1403.2 365.343H1400.37H1288.17C1242.24 365.343 1205 328.106 1205 282.172C1205 236.237 1242.24 199 1288.17 199H1411.83C1457.76 199 1495 236.237 1495 282.172V308.041C1495 339.688 1469.34 365.343 1437.7 365.343H1430.81L1431.75 372.166L1436.41 405.762L1405 367.534Z" stroke="black" stroke-width="12"/>
<path d="M2416 617.084C2383.92 453.547 2236.74 151.118 2192.41 245.094C2137 362.564 2158.39 698.851 2233.24 718.429C2308.1 738.007 2199.22 247.398 2105.9 281.948C2031.24 309.588 2074.79 453.162 2105.9 521.494C2094.88 429.361 2080.73 300.376 1928 214" stroke="black" stroke-width="12" stroke-linecap="round"/>
<path d="M945 2766.63C931.984 2700.24 872.269 2577.47 854.283 2615.62C831.801 2663.31 840.478 2799.82 870.849 2807.77C901.219 2815.72 857.044 2616.56 819.179 2630.58C788.888 2641.8 806.558 2700.09 819.179 2727.82C814.709 2690.42 808.966 2638.06 747 2603" stroke="black" stroke-width="12" stroke-linecap="round"/>
<path d="M2612.5 1652.5C2480 1544 2470 1347 2147.5 1258.5C2074.91 1238.58 2002.71 1229.69 1934.5 1228.8C1934.5 1228.8 1885.64 1331.5 1784 1331.5C1706.5 1331.5 1654 1279.5 1654 1279.5C1609.37 1299.07 1554.18 1326.45 1510 1366C1433.53 1434.46 1437.5 1493 1403.5 1530C1369.5 1567 1295 1635.5 1237 1605C1179 1574.5 1210 1533.5 1237 1418C1264 1302.5 1288 1190.5 1274.5 1156.5C1261 1122.5 1003 1085.5 972.5 1102.5C948.1 1116.1 871.666 1318.5 836.5 1418C796.833 1583.33 784.8 1932.3 1054 2005.5C1323.2 2078.7 1510.17 1957 1570 1887C1602.4 1968.6 1777.83 2375.5 1851.5 2526L2499 2502L2762 2379C2768.83 2316.83 2778.4 2166 2762 2060C2741.5 1927.5 2745 1761 2612.5 1652.5Z" fill="#FFDC4D"/>
<path d="M1809.06 1834.5L1657.14 1756L1625 1818.19L1776.92 1896.69L1809.06 1834.5Z" fill="#FFB84D"/>
<path d="M2147.56 1321.51L1985.8 1376.97L2008.5 1443.19L2170.26 1387.73L2147.56 1321.51Z" fill="#FFB84D"/>
<path d="M1732.57 1464.2L1793.32 1304.35L1727.89 1279.48L1667.14 1439.33L1732.57 1464.2Z" fill="#FFB84D"/>
<path d="M2358.85 1981.61L2405.02 1816.96L2337.62 1798.06L2291.45 1962.71L2358.85 1981.61Z" fill="#FFB84D"/>
<path d="M2448 2238.77L2615.99 2270.7L2629.06 2201.93L2461.07 2170L2448 2238.77Z" fill="#FFB84D"/>
<path d="M2667.98 1930.63L2762.84 2072.9L2743.36 1917.5L2726.22 1891.79L2667.98 1930.63Z" fill="#FFB84D"/>
<path d="M2419.98 1449.67L2477.15 1610.84L2543.12 1587.43L2536.58 1569C2518.65 1545.8 2477.15 1476.5 2445.5 1440.5L2419.98 1449.67Z" fill="#FFB84D"/>
<path d="M2178.33 2321.34L2270.46 2465.4L2329.43 2427.69L2237.3 2283.63L2178.33 2321.34Z" fill="#FFB84D"/>
<path d="M2111.6 1982L1948 2031.76L1968.37 2098.73L2131.97 2048.97L2111.6 1982Z" fill="#FFB84D"/>
<path d="M1236.6 1627L1073 1676.76L1093.37 1743.73L1256.97 1693.97L1236.6 1627Z" fill="#FFB84D"/>
<path d="M1314.3 1982.35L1257.45 1941.51L1196.02 2027C1217.18 2027.51 1264.4 2027.74 1284 2024.52L1314.3 1982.35Z" fill="#FFB84D"/>
<path d="M994.25 1302.39L1029.75 1242.06L928 1182.18L901 1247.51L994.25 1302.39Z" fill="#FFB84D"/>
<path d="M1257.95 1187L1199 1347.52L1249 1365.88C1257 1345.38 1274 1248.5 1278 1194.36L1257.95 1187Z" fill="#FFB84D"/>
<path d="M922.659 1812.13L856.95 1788L848.088 1812.13C855.681 1830.35 875.648 1875.51 893.501 1896L922.659 1812.13Z" fill="#FFB84D"/>
<path d="M1821.75 2311.94L1818.85 2242L1724.5 2245.92L1754.5 2314.73L1821.75 2311.94Z" fill="#FFB84D"/>
<path d="M2076 1708.5C2178 1750.83 2392.2 1857.9 2433 1947.5C2473.8 2037.1 2491.33 2179.5 2495 2239.5M1522.5 1528.5C1521.5 1582.83 1526.8 1719.6 1556 1832L1522.5 1528.5Z" stroke="black" stroke-width="12" stroke-linecap="round"/>
<path d="M2045 1570.5C2056.33 1597.83 2090.8 1660.9 2138 1694.5" stroke="black" stroke-width="12" stroke-linecap="round"/>
<path d="M1786.27 781C1686.1 781 1639.23 807.65 1565.71 939.065C1528.4 1005.77 1507.14 1108.16 1540.9 1142.16C1562.06 1163.46 1612.34 1186.63 1664.05 1203.73L1654 1313.5C1644.49 1337.54 1694.08 1382.2 1764.5 1389.5C1847.83 1398.13 1932.23 1358.52 1955.5 1291C1960.86 1275.46 1916.46 1211.68 1933.31 1172.92C1978.97 1131.84 2007.74 1071.94 2007.74 1005.23C2007.74 881.392 1908.59 781 1786.27 781Z" fill="#ED4546"/>
<path d="M1590.06 1026.93L1648.05 972.108L1641.09 1048.76L1590.06 1026.93Z" fill="#D7090A"/>
<path d="M1642.23 976.464L1586.93 1025.65L1638.09 1046.21" stroke="black" stroke-width="12" stroke-linecap="round"/>
<path d="M1634.66 1098.12L1576.88 1070.96C1577.58 1080.28 1583.95 1097.94 1593.76 1104.78C1609.97 1116.07 1624.47 1105.95 1634.66 1098.12Z" stroke="black" stroke-width="12"/>
<path d="M1576.24 949.914C1583.92 955.684 1594.82 954.139 1600.59 946.464C1606.36 938.789 1604.81 927.889 1597.14 922.12C1589.46 916.35 1578.56 917.895 1572.79 925.57C1567.02 933.245 1568.57 944.145 1576.24 949.914Z" fill="black"/>
<path d="M1692.03 1007.73C1699.71 1013.5 1710.61 1011.96 1716.38 1004.28C1722.15 996.605 1720.6 985.705 1712.93 979.936C1705.25 974.166 1694.35 975.711 1688.58 983.386C1682.81 991.061 1684.36 1001.96 1692.03 1007.73Z" fill="black"/>
<path d="M1712.66 933.582C1728.45 934.952 1748 943.224 1757.23 955.436" stroke="black" stroke-width="12" stroke-linecap="round"/>
<path d="M1624.87 891.874C1612.9 881.478 1593.36 873.182 1578.17 875.043" stroke="black" stroke-width="12" stroke-linecap="round"/>
<path d="M1691.22 1072.18C1699.13 1078.12 1710.35 1076.53 1716.29 1068.63C1722.23 1060.72 1720.64 1049.5 1712.74 1043.56C1704.84 1037.62 1693.61 1039.21 1687.67 1047.11C1681.73 1055.02 1683.32 1066.24 1691.22 1072.18Z" fill="#D7090A"/>
<path d="M1551.54 1002.34C1559.44 1008.28 1570.67 1006.69 1576.61 998.786C1582.55 990.882 1580.96 979.658 1573.06 973.717C1565.15 967.775 1553.93 969.366 1547.99 977.27C1542.05 985.174 1543.64 996.398 1551.54 1002.34Z" fill="#D7090A"/>
<path d="M1933.31 1172.92C1978.97 1131.84 2120.5 939.065 2120.5 939.065L2052.5 951L2060 860H1961.8L1898.39 735.5L1789 761L1770.5 663.5L1636.63 836.139C1650.26 868.303 1714.59 911.495 1812 911.495C1887.25 911.495 1930.55 942.741 1898.39 973.986C1872.66 998.982 1849.68 1043.22 1841.41 1062.21C1827.32 1099.11 1825.97 1172.92 1933.31 1172.92Z" fill="black"/>
<path d="M1842.3 1117.64C1861.56 1131.97 1893.12 1122.19 1912.77 1095.78C1932.42 1069.37 1932.73 1036.34 1913.46 1022C1894.2 1007.67 1862.65 1017.45 1842.99 1043.86C1823.34 1070.27 1823.03 1103.3 1842.3 1117.64Z" fill="#D7090A"/>
<path d="M1850.33 1067.46C1858.83 1056.86 1880.1 1041.94 1893.45 1040.05" stroke="black" stroke-width="12" stroke-linecap="round"/>
<path d="M1881.96 1045.6C1886.07 1051.73 1890.33 1065.16 1889.14 1072.39" stroke="black" stroke-width="12" stroke-linecap="round"/>
<path d="M1003.26 954.525C964.739 1012.39 983.027 1060.57 996.986 1077.42L994.95 1098.5C1069.32 1105.17 1227.46 1124.1 1265.03 1146.5C1268.75 1132.94 1272.51 1119.39 1275.9 1107.52C1288.59 1063.07 1394.36 974.08 1405.45 952.648C1416.55 931.216 1419.11 915.87 1405.72 906.119C1395 898.318 1333.85 922.65 1304.61 935.791L1332.9 856.388C1345.06 812.098 1364.64 716.866 1345.65 690.254C1326.66 663.643 1302.08 706.758 1292.16 731.642C1296.63 719.87 1302.39 691.135 1289.63 670.374C1276.88 649.612 1247.93 687.69 1235.04 709.324C1237.65 693.735 1238.33 661.798 1220.21 658.769C1202.09 655.739 1176.82 716.117 1166.45 746.685L1170.24 724.032C1173.9 706.615 1179.33 669.663 1171.73 661.182C1162.23 650.58 1148.95 662.632 1129.2 704.402C1109.45 746.171 1051.4 882.197 1003.26 954.525Z" fill="#ED4546"/>
<path d="M1291.33 938.829C1265.18 945.475 1203.23 968.872 1164.62 1009.29" stroke="black" stroke-width="12" stroke-linecap="round"/>
<path d="M1247.28 847.334L1285.45 749.3M1139.13 829.255L1160.23 765.927L1139.13 829.255ZM1188.09 837.439L1227.73 730.637L1188.09 837.439Z" stroke="black" stroke-width="12" stroke-linecap="round"/>
<path d="M2531.81 2432.74C2540.87 2423.03 2537 2385.83 2533.22 2364C2635.5 2415.1 2678 2391.1 2757.34 2372.9C2758.15 2395.81 2757.87 2437.59 2755.93 2457C2753.5 2481.26 2734.89 2602.56 2702.53 2626.82C2670.16 2651.08 2612.72 2721.43 2593.3 2752.97C2577.77 2778.2 2538.28 2826.02 2520.48 2846.78C2507.81 2856.75 2479.38 2872.98 2467.08 2858.1C2454.79 2843.22 2475.45 2790.98 2487.31 2766.72C2471.67 2788.28 2435.69 2832.38 2416.92 2836.26C2379.38 2842.73 2396.42 2786.66 2409.64 2757.82C2397.77 2772.92 2367.89 2802.14 2343.29 2798.26C2318.7 2794.37 2329.81 2750.27 2338.44 2728.71C2329 2737.87 2307.86 2753.62 2298.79 2743.27C2287.47 2730.33 2292.32 2702.02 2298.79 2676.96C2303.97 2656.9 2336.01 2600.13 2351.39 2574.25C2340.06 2579.11 2317.08 2585.9 2315.79 2574.25C2314.17 2559.7 2353.81 2511.99 2398.31 2488.54C2442.81 2465.08 2520.48 2444.87 2531.81 2432.74Z" fill="#ED4546"/>
<path d="M2487.13 2770.1C2497.91 2751.93 2521.59 2713.47 2530 2705.01M2348 2715.59C2357.98 2699.04 2383.91 2660.59 2407.86 2639.1L2348 2715.59ZM2422.42 2747.32C2434.01 2728.61 2462.05 2685.97 2481.47 2665.14L2422.42 2747.32Z" stroke="black" stroke-width="12" stroke-linecap="round"/>
<path d="M2361 2564.1C2374.01 2549.67 2409.62 2516.06 2448 2497.1" stroke="black" stroke-width="12" stroke-linecap="round"/>
<path d="M966.349 1422.77L964.548 1420.58H961.714H810.788C747.945 1420.58 697 1369.63 697 1306.79C697 1243.94 747.945 1193 810.788 1193H977.212C1040.06 1193 1091 1243.94 1091 1306.79V1341.48C1091 1385.16 1055.58 1420.58 1011.9 1420.58H1005.01L1005.96 1427.4L1013.22 1479.77L966.349 1422.77Z" stroke="black" stroke-width="12"/>
</svg>
