<svg width="3000" height="3000" viewBox="0 0 3000 3000" fill="none" xmlns="http://www.w3.org/2000/svg">
<path d="M2770.11 1132.5H1872.17L1843.11 1811.5L2238.66 1799.68L2590.45 1789.16L2770.11 1783.79V1132.5Z" fill="#D1EAFF"/>
<path d="M2573.91 2186.5L2614.81 2290.03L2757.71 2221.29L2665.81 2353.94L2784.11 2416.83L2647.6 2433.64L2655.71 2544.65L2573.91 2469.11L2460.92 2572.5L2500.21 2433.64L2390.11 2416.83L2482.01 2353.94L2443.85 2265.28L2533.01 2290.03L2573.91 2186.5Z" fill="black"/>
<path d="M880.109 1406.11C866.436 1336.49 803.705 1207.73 784.811 1247.74C761.193 1297.75 770.309 1440.92 802.213 1449.26C834.117 1457.59 787.711 1248.72 747.934 1263.43C716.113 1275.2 734.675 1336.32 747.934 1365.41C743.238 1326.19 737.205 1271.27 672.109 1234.5" stroke="black" stroke-width="12" stroke-linecap="round"/>
<path d="M542.109 857V82H1576.11V259.5H1977.11V826.5" stroke="#FFDC4D" stroke-width="12"/>
<path d="M1121.11 1839.32H1276.33L1559.11 1829.25V607H145.747L100 1881.25L580.609 1864.12" stroke="black" stroke-width="12"/>
<path d="M145.746 607H1559.11V860.031H136.609L145.746 607Z" fill="black"/>
<path d="M256.969 798.153C290.187 798.153 317.115 769.214 317.115 733.516C317.115 697.818 290.187 668.879 256.969 668.879C223.751 668.879 196.823 697.818 196.823 733.516C196.823 769.214 223.751 798.153 256.969 798.153Z" fill="white"/>
<path d="M413.348 798.153C446.566 798.153 473.494 769.214 473.494 733.516C473.494 697.818 446.566 668.879 413.348 668.879C380.13 668.879 353.202 697.818 353.202 733.516C353.202 769.214 380.13 798.153 413.348 798.153Z" fill="white"/>
<path d="M569.724 798.153C602.942 798.153 629.87 769.214 629.87 733.516C629.87 697.818 602.942 668.879 569.724 668.879C536.506 668.879 509.578 697.818 509.578 733.516C509.578 769.214 536.506 798.153 569.724 798.153Z" fill="white"/>
<path d="M1543.3 1273.9L1000.11 1289.75L1040.02 379.5H2273.11V1252.6L2026.4 1259.8" stroke="black" stroke-width="12"/>
<path d="M1500.54 1685.53H1902.87M1500.54 1641.44H1753.45H1500.54Z" stroke="black" stroke-width="12" stroke-linecap="round"/>
<path d="M2455 482.982C2455 502.303 2450.64 540 2431.31 540C2411.98 540 2385 502.303 2385 482.982C2385 463.662 2400.67 448 2420 448C2439.33 448 2455 463.662 2455 482.982Z" fill="black"/>
<path d="M2599 585.982C2599 605.302 2594.71 643 2575.65 643C2556.6 643 2530 605.302 2530 585.982C2530 566.662 2545.45 551 2564.5 551C2583.55 551 2599 566.662 2599 585.982Z" fill="black"/>
<path d="M2653 722.982C2653 742.303 2648.71 780 2629.65 780C2610.6 780 2584 742.303 2584 722.982C2584 703.662 2599.45 688 2618.5 688C2637.55 688 2653 703.662 2653 722.982Z" fill="black"/>
<path d="M2696 585.982C2696 605.302 2691.71 643 2672.65 643C2653.6 643 2627 605.302 2627 585.982C2627 566.662 2642.45 551 2661.5 551C2680.55 551 2696 566.662 2696 585.982Z" fill="black"/>
<path d="M923.977 448L997.932 645.339L1125.91 546.832L1032.13 705.158L1306 781.558L1006.07 754.077L1106.05 988L972.206 796.513L846.178 974.996L882.651 781.558L670 815.369L888.513 713.286L726.338 468.156L914.565 634.61L923.977 448Z" fill="#FFDC4D"/>
<path d="M1419.5 303.727C1448.37 339.712 1479 415.227 1529.5 378.727L1428.11 508.227C1262.61 267.727 1383.42 258.745 1419.5 303.727Z" fill="#3D98E7"/>
<path d="M1806.05 87.582C1809.44 94.5311 1794.32 108.878 1772.29 119.627C1750.26 130.375 979.528 499.4 979.528 499.4C979.528 499.4 1737.98 105.21 1760.02 94.4613C1782.05 83.7128 1802.66 80.6328 1806.05 87.582Z" fill="black"/>
<path d="M1764.34 111.408C1775.39 106.366 1783.61 100.649 1782.7 98.6387C1781.78 96.6288 1772.07 99.0872 1761.02 104.13C1749.97 109.172 1741.75 114.889 1742.66 116.899C1743.58 118.909 1753.29 116.451 1764.34 111.408Z" fill="white"/>
<path d="M1748 143.146C1830.4 167.546 1851 278.98 1851 331.646L1691.5 587.646C1655.67 591.313 1559.2 585.446 1460 532.646C1360.8 479.846 1446.34 412.98 1501.5 386.146C1517.67 374.313 1543.2 329.146 1516 243.146C1488.8 157.146 1409.34 151.313 1373 159.146C1350.34 162.313 1313.4 157.446 1347 112.646C1415 26.6463 1560 62.8129 1624 91.6463C1657.6 78.8463 1704.67 120.646 1724 143.146H1748Z" fill="#3D98E7"/>
<path d="M713 1003C673 1040.5 565.616 1221 574.5 1336.5C597 1629 863 1598.5 863 1860C863 2143.5 444 2121.5 444 2429C444 2706 838.5 2807.33 863 2838.5" stroke="black" stroke-width="12" stroke-linecap="round"/>
<path d="M711 1005.5L670 982.5L745 968L734.659 893.154C734.563 892.723 734.508 892.336 734.5 892L734.659 893.154C736.471 901.258 753 925 753 925C753 925 791.333 918.666 801.5 909L779.5 959L838 968H745L753 1033L711 1005.5Z" fill="#FFDC4D"/>
<path d="M1876 334.146C1669.6 326.946 1667 546.146 1691.5 656.646C1703.58 711.146 2203 969.646 2208 1002.15C2212 1028.15 2148 1160.31 2115.5 1223.15C2055.67 1256.98 1874.2 1379.05 1627 1596.65C1379.8 1814.25 1357.83 2113.73 1379.5 2221.23C1373.33 2198.06 1309.39 2150.15 1287.5 2108.23C1265.62 2066.31 1194 2066.65 1079 2154.15C987.001 2224.15 1007 2250.73 1013 2290.73C1108.97 2462.98 1253.09 2807 1433.5 2877.65C1516.5 2910.15 1645.5 2886.65 1691.5 2845.15C1728.3 2811.95 1806.5 2513.65 1823.5 2426.15L1956 2730.73C2221.5 2812.1 2727.04 2639.87 2802.5 2361.65C2771.67 2246.48 2647.5 1856.33 2599.5 1756.73C2539.5 1632.23 2802.5 1078.87 2631.5 831.646C2598.3 783.646 2442.67 645.646 2369 582.646C2309.5 541.146 2181.9 515.646 2115.5 467.646C2032.5 407.646 1968 361.646 1876 334.146Z" fill="#F07CF2"/>
<path d="M1517.5 1974C1547.6 1974 1572 1949.6 1572 1919.5C1572 1889.4 1547.6 1865 1517.5 1865C1487.4 1865 1463 1889.4 1463 1919.5C1463 1949.6 1487.4 1974 1517.5 1974Z" fill="#DC34DF"/>
<path d="M1612.5 2243C1642.6 2243 1667 2218.6 1667 2188.5C1667 2158.4 1642.6 2134 1612.5 2134C1582.4 2134 1558 2158.4 1558 2188.5C1558 2218.6 1582.4 2243 1612.5 2243Z" fill="#DC34DF"/>
<path d="M1887.5 1820C1917.6 1820 1942 1795.6 1942 1765.5C1942 1735.4 1917.6 1711 1887.5 1711C1857.4 1711 1833 1735.4 1833 1765.5C1833 1795.6 1857.4 1820 1887.5 1820Z" fill="#DC34DF"/>
<path d="M1959.5 2409C1989.6 2409 2014 2384.6 2014 2354.5C2014 2324.4 1989.6 2300 1959.5 2300C1929.4 2300 1905 2324.4 1905 2354.5C1905 2384.6 1929.4 2409 1959.5 2409Z" fill="#DC34DF"/>
<path d="M2311.5 2119C2341.6 2119 2366 2094.6 2366 2064.5C2366 2034.4 2341.6 2010 2311.5 2010C2281.4 2010 2257 2034.4 2257 2064.5C2257 2094.6 2281.4 2119 2311.5 2119Z" fill="#DC34DF"/>
<path d="M2714.5 2402C2744.6 2402 2769 2377.6 2769 2347.5C2769 2317.4 2744.6 2293 2714.5 2293C2684.4 2293 2660 2317.4 2660 2347.5C2660 2377.6 2684.4 2402 2714.5 2402Z" fill="#DC34DF"/>
<path d="M2149.5 1537C2179.6 1537 2204 1512.6 2204 1482.5C2204 1452.4 2179.6 1428 2149.5 1428C2119.4 1428 2095 1452.4 2095 1482.5C2095 1512.6 2119.4 1537 2149.5 1537Z" fill="#DC34DF"/>
<path d="M2014.5 2083C2044.6 2083 2069 2058.6 2069 2028.5C2069 1998.4 2044.6 1974 2014.5 1974C1984.4 1974 1960 1998.4 1960 2028.5C1960 2058.6 1984.4 2083 2014.5 2083Z" fill="#DC34DF"/>
<path d="M2272.5 2584C2302.6 2584 2327 2559.6 2327 2529.5C2327 2499.4 2302.6 2475 2272.5 2475C2242.4 2475 2218 2499.4 2218 2529.5C2218 2559.6 2242.4 2584 2272.5 2584Z" fill="#DC34DF"/>
<path d="M2497.5 1781C2527.6 1781 2552 1756.6 2552 1726.5C2552 1696.4 2527.6 1672 2497.5 1672C2467.4 1672 2443 1696.4 2443 1726.5C2443 1756.6 2467.4 1781 2497.5 1781Z" fill="#DC34DF"/>
<path d="M2365.5 1208C2395.6 1208 2420 1183.6 2420 1153.5C2420 1123.4 2395.6 1099 2365.5 1099C2335.4 1099 2311 1123.4 2311 1153.5C2311 1183.6 2335.4 1208 2365.5 1208Z" fill="#DC34DF"/>
<path d="M2584.5 988C2614.6 988 2639 963.6 2639 933.5C2639 903.4 2614.6 879 2584.5 879C2554.4 879 2530 903.4 2530 933.5C2530 963.6 2554.4 988 2584.5 988Z" fill="#DC34DF"/>
<path d="M2163.5 860C2193.6 860 2218 835.6 2218 805.5C2218 775.4 2193.6 751 2163.5 751C2133.4 751 2109 775.4 2109 805.5C2109 835.6 2133.4 860 2163.5 860Z" fill="#DC34DF"/>
<path d="M1960.5 544C1990.6 544 2015 519.6 2015 489.5C2015 459.4 1990.6 435 1960.5 435C1930.4 435 1906 459.4 1906 489.5C1906 519.6 1930.4 544 1960.5 544Z" fill="#DC34DF"/>
<path d="M1666.5 2766C1696.6 2766 1721 2741.6 1721 2711.5C1721 2681.4 1696.6 2657 1666.5 2657C1636.4 2657 1612 2681.4 1612 2711.5C1612 2741.6 1636.4 2766 1666.5 2766Z" fill="#DC34DF"/>
<path d="M1408.5 2664C1438.6 2664 1463 2639.6 1463 2609.5C1463 2579.4 1438.6 2555 1408.5 2555C1378.4 2555 1354 2579.4 1354 2609.5C1354 2639.6 1378.4 2664 1408.5 2664Z" fill="#DC34DF"/>
<path d="M1180.5 2457C1210.6 2457 1235 2432.6 1235 2402.5C1235 2372.4 1210.6 2348 1180.5 2348C1150.4 2348 1126 2372.4 1126 2402.5C1126 2432.6 1150.4 2457 1180.5 2457Z" fill="#DC34DF"/>
<path d="M1235.5 2228C1265.6 2228 1290 2203.6 1290 2173.5C1290 2143.4 1265.6 2119 1235.5 2119C1205.4 2119 1181 2143.4 1181 2173.5C1181 2203.6 1205.4 2228 1235.5 2228Z" fill="#DC34DF"/>
<path d="M1385 2208.65C1375.33 2289.81 1361.8 2459.55 1385 2489.15C1408.2 2518.75 1419.33 2581.15 1422 2608.65" stroke="black" stroke-width="12" stroke-linecap="round"/>
<path d="M2246 975.485C2261.5 927.651 2330.2 866.285 2365 863.485C2408.5 859.985 2526.5 828.985 2552 843.485" stroke="black" stroke-width="12" stroke-linecap="round"/>
<path d="M2267 996.267C2293.53 980.082 2350.27 978.9 2367.6 991.55C2389.25 1007.36 2456.68 1040.18 2462.69 1057.2" stroke="black" stroke-width="12" stroke-linecap="round"/>
<path d="M1354.08 2299.65C1328.76 2317.66 1305.33 2369.36 1310.14 2390.26C1316.15 2416.39 1319.77 2491.29 1333.05 2503.52" stroke="black" stroke-width="12" stroke-linecap="round"/>
<path d="M1367 1243.65C1367 1267.77 1360.54 1289.33 1350.42 1304.69C1340.26 1320.09 1326.91 1328.65 1313 1328.65C1299.09 1328.65 1285.74 1320.09 1275.58 1304.69C1265.46 1289.33 1259 1267.77 1259 1243.65C1259 1219.52 1265.46 1197.96 1275.58 1182.6C1285.74 1167.2 1299.09 1158.65 1313 1158.65C1326.91 1158.65 1340.26 1167.2 1350.42 1182.6C1360.54 1197.96 1367 1219.52 1367 1243.65Z" stroke="black" stroke-width="12"/>
<path d="M1518 1465.65C1631.22 1465.65 1723 1373.87 1723 1260.65C1723 1147.43 1631.22 1055.65 1518 1055.65C1404.78 1055.65 1313 1147.43 1313 1260.65C1313 1373.87 1404.78 1465.65 1518 1465.65Z" fill="#3D98E7"/>
<path d="M1512 1260.73C1428 1222.33 1338.83 1188.83 1323.5 1146.5C1285.61 934.698 1640.45 827.823 1742 978.727C1754.16 996.799 1772.8 1045.93 1854 1056.73C1955.5 1070.23 1940 1096.73 1987 1180.23C2024.6 1247.03 2178 1267.56 2217.5 1260.73L1716 1603.77L1669 1582.73L1651 1648.23L1512 1745.73C1503.67 1704.56 1492 1614.33 1512 1582.73C1537 1543.23 1512 1525.23 1512 1449.73C1512 1389.33 1551 1358.89 1570.5 1351.23C1629 1318.23 1647.5 1260.73 1607.5 1228.23C1575.5 1202.23 1530.5 1239.06 1512 1260.73Z" fill="black" stroke="black"/>
<path d="M1580.5 1354.65C1620.54 1354.65 1653 1322.19 1653 1282.15C1653 1242.11 1620.54 1209.65 1580.5 1209.65C1540.46 1209.65 1508 1242.11 1508 1282.15C1508 1322.19 1540.46 1354.65 1580.5 1354.65Z" fill="#0E76D0"/>
<path d="M1355.5 1319.65C1366.82 1319.65 1376 1309.35 1376 1296.65C1376 1283.95 1366.82 1273.65 1355.5 1273.65C1344.18 1273.65 1335 1283.95 1335 1296.65C1335 1309.35 1344.18 1319.65 1355.5 1319.65Z" fill="#0E76D0"/>
<path d="M1531 1273.65C1542.5 1262.15 1568 1250.65 1585.5 1250.65" stroke="black" stroke-width="12" stroke-linecap="round"/>
<path d="M1565 1254.5C1568.79 1260.34 1576.77 1279.55 1578 1292.65" stroke="black" stroke-width="12" stroke-linecap="round"/>
<path d="M1259 1241.65L1523.5 1216.15" stroke="black" stroke-width="12"/>
<path d="M757.722 2108.91L760.049 2132.8C795.511 2220.31 936.754 2203.79 1013 2245.73C1045.67 2196.39 1183.7 2091.53 1260.5 2088.73C1224.93 1985.01 1181.58 1901.43 1119.78 1808.38C1057.61 1714.77 999.354 1806.39 977.997 1863.9C967.788 1881.13 925.31 1910.93 837.078 1892.2C748.845 1873.47 735.332 1794.94 739.605 1758.02C740.559 1735.15 732.133 1698.86 690.803 1736.65C611.803 1812.67 661.862 1953.48 696.766 2014.38C687.285 2049.06 733.453 2091.85 757.722 2108.91Z" fill="#3D98E7"/>
<path d="M888.014 1790.28C926.629 1815.52 1004.76 1838.68 973.329 1892.48L1089.5 1776.23C834.084 1634.83 839.745 1758.73 888.014 1790.28Z" fill="#3D98E7"/>
<path d="M2871 2750.08C2838.92 2586.55 2691.74 2284.12 2647.41 2378.09C2592 2495.56 2613.39 2831.85 2688.24 2851.43C2763.1 2871.01 2654.22 2380.4 2560.9 2414.95C2486.24 2442.59 2529.79 2586.16 2560.9 2654.49C2549.88 2562.36 2535.73 2433.37 2383 2347" stroke="black" stroke-width="12" stroke-linecap="round"/>
<path d="M507.001 1639.36C507.001 1658.89 511.357 1697 530.687 1697C550.017 1697 577.001 1658.89 577.001 1639.36C577.001 1619.83 561.331 1604 542.001 1604C522.671 1604 507.001 1619.83 507.001 1639.36Z" fill="black"/>
<path d="M409 1639.36C409 1658.89 413.356 1697 432.686 1697C452.016 1697 479 1658.89 479 1639.36C479 1619.83 463.33 1604 444 1604C424.671 1604 409 1619.83 409 1639.36Z" fill="black"/>
<path d="M312 1639.36C312 1658.89 316.356 1697 335.686 1697C355.016 1697 382 1658.89 382 1639.36C382 1619.83 366.33 1604 347 1604C327.671 1604 312 1619.83 312 1639.36Z" fill="black"/>
</svg>
