<svg width="3000" height="3000" viewBox="0 0 3000 3000" fill="none" xmlns="http://www.w3.org/2000/svg">
<path d="M2688 1848H1790.06L1761 2527L2156.55 2515.18L2508.35 2504.66L2688 2499.29V1848Z" fill="#D1EAFF"/>
<path d="M2232.11 960.355C2265.37 791.637 2417.98 479.626 2463.94 576.579C2521.4 697.771 2499.22 1044.71 2421.61 1064.91C2343.99 1085.11 2456.89 578.956 2553.65 614.6C2631.06 643.116 2585.91 791.239 2553.65 861.736C2565.07 766.684 2579.75 633.612 2738.11 544.5" stroke="#FFDC4D" stroke-width="12" stroke-linecap="round"/>
<path d="M1299 2278.01C1243.25 1994.01 987.504 1468.8 910.474 1632C814.187 1836 851.351 2420.01 981.422 2454.01C1111.49 2488.01 922.299 1636 760.131 1696C630.398 1744 706.076 1993.34 760.131 2112C740.987 1952 716.391 1728 451 1578" stroke="black" stroke-width="12" stroke-linecap="round"/>
<path d="M610 1097.5V258H1644V435.5H2045V1002.5" stroke="black" stroke-width="12"/>
<path d="M577.453 2587.17C577.453 2631.17 567.537 2717.03 523.536 2717.03C479.534 2717.03 418.109 2631.17 418.109 2587.17C418.109 2543.17 453.78 2507.5 497.781 2507.5C541.783 2507.5 577.453 2543.17 577.453 2587.17Z" fill="black"/>
<path d="M799.505 2587.17C799.505 2631.17 789.59 2717.03 745.588 2717.03C701.587 2717.03 640.162 2631.17 640.162 2587.17C640.162 2543.17 675.832 2507.5 719.833 2507.5C763.835 2507.5 799.505 2543.17 799.505 2587.17Z" fill="black"/>
<path d="M1021.2 2587.17C1021.2 2631.17 1011.29 2717.03 967.285 2717.03C923.283 2717.03 861.858 2631.17 861.858 2587.17C861.858 2543.17 897.528 2507.5 941.53 2507.5C985.531 2507.5 1021.2 2543.17 1021.2 2587.17Z" fill="black"/>
<path d="M2577.11 835.764C2577.11 856.344 2572.44 896.5 2551.73 896.5C2531.02 896.5 2502.11 856.344 2502.11 835.764C2502.11 815.184 2518.9 798.5 2539.61 798.5C2560.32 798.5 2577.11 815.184 2577.11 835.764Z" fill="black"/>
<path d="M2665.89 859.891C2665.89 875.57 2662.36 906.164 2646.68 906.164C2631 906.164 2609.11 875.57 2609.11 859.891C2609.11 844.211 2621.82 831.5 2637.5 831.5C2653.18 831.5 2665.89 844.211 2665.89 859.891Z" fill="black"/>
<path d="M2586.89 958.891C2586.89 974.57 2583.36 1005.16 2567.68 1005.16C2552 1005.16 2530.11 974.57 2530.11 958.891C2530.11 943.211 2542.82 930.5 2558.5 930.5C2574.18 930.5 2586.89 943.211 2586.89 958.891Z" fill="black"/>
<path d="M2666.02 958.891C2666.02 974.57 2662.48 1005.16 2646.8 1005.16C2631.12 1005.16 2609.24 974.57 2609.24 958.891C2609.24 943.211 2621.95 930.5 2637.63 930.5C2653.31 930.5 2666.02 943.211 2666.02 958.891Z" fill="black"/>
<path d="M2745.02 958.891C2745.02 974.57 2741.48 1005.16 2725.8 1005.16C2710.12 1005.16 2688.24 974.57 2688.24 958.891C2688.24 943.211 2700.95 930.5 2716.63 930.5C2732.31 930.5 2745.02 943.211 2745.02 958.891Z" fill="black"/>
<path d="M2587.89 1057.89C2587.89 1073.57 2584.36 1104.16 2568.68 1104.16C2553 1104.16 2531.11 1073.57 2531.11 1057.89C2531.11 1042.21 2543.82 1029.5 2559.5 1029.5C2575.18 1029.5 2587.89 1042.21 2587.89 1057.89Z" fill="black"/>
<path d="M2790.11 1086.92C2790.11 1118.63 2782.95 1180.5 2751.2 1180.5C2719.44 1180.5 2675.11 1118.63 2675.11 1086.92C2675.11 1055.21 2700.85 1029.5 2732.61 1029.5C2764.37 1029.5 2790.11 1055.21 2790.11 1086.92Z" fill="black"/>
<path d="M1282.11 2326.77H1437.33L1720.11 2316.69V1094.45H306.747L261 2368.69L741.609 2351.57" stroke="black" stroke-width="12"/>
<path d="M432.5 1270C457.077 1270 477 1248.51 477 1222C477 1195.49 457.077 1174 432.5 1174C407.923 1174 388 1195.49 388 1222C388 1248.51 407.923 1270 432.5 1270Z" fill="black"/>
<path d="M548.5 1270C573.077 1270 593 1248.51 593 1222C593 1195.49 573.077 1174 548.5 1174C523.923 1174 504 1195.49 504 1222C504 1248.51 523.923 1270 548.5 1270Z" fill="black"/>
<path d="M664.5 1270C689.077 1270 709 1248.51 709 1222C709 1195.49 689.077 1174 664.5 1174C639.923 1174 620 1195.49 620 1222C620 1248.51 639.923 1270 664.5 1270Z" fill="black"/>
<path d="M2033.19 2274.18L1490 2286L1529.91 1607H2763V2258.29L2516.29 2263.66" stroke="black" stroke-width="12"/>
<path d="M1585.43 2231.03H1987.76M1585.43 2186.94H1838.34H1585.43Z" stroke="black" stroke-width="12" stroke-linecap="round"/>
<path d="M2763 1607H1530V1733H2763V1607Z" fill="black"/>
<path d="M662.635 136L545.413 180.728L566.339 279.224C558.167 287.169 549.486 296.339 540.376 306.107L439.899 284.121L390.519 396.475L475.91 451.806C474.968 465.632 474.968 479.504 475.91 493.33L388 545.43L434.032 659.4L532.847 639.862C541.707 650.207 551.518 659.746 562.159 668.361L539.545 764.434L655.937 812.444L712.874 729.422C727.101 730.334 740.498 730.334 754.725 729.422L809.17 814.893L926.366 770.113L903.779 665.912C914.12 657.267 923.643 647.738 932.234 637.439L1034.4 662.656L1084.64 548.686L995.869 495.779C996.726 482.233 996.726 469.416 995.869 455.896L1083.81 402.988L1037.72 288.993L935.583 310.979C926.731 300.635 916.929 291.096 906.297 282.48L928.885 186.459L812.519 138.423L758.074 221.471C744.061 220.142 729.941 219.439 716.223 220.637L662.635 136ZM737.149 368.81C796.363 368.81 844.324 415.44 844.324 473.011C844.324 530.582 796.363 577.211 737.149 577.211C677.934 577.211 629.974 530.582 629.974 473.011C629.974 415.44 677.934 368.81 737.149 368.81Z" fill="#FFDC4D"/>
<path d="M1224.16 547L1164.76 569.73L1175.37 619.783C1171.23 623.821 1166.83 628.481 1162.21 633.445L1111.3 622.272L1086.28 679.368L1129.55 707.486C1129.07 714.513 1129.07 721.562 1129.55 728.588L1085 755.064L1108.33 812.981L1158.4 803.053C1162.89 808.31 1167.86 813.158 1173.25 817.535L1161.79 866.358L1220.77 890.756L1249.62 848.566C1256.83 849.029 1263.62 849.029 1270.83 848.566L1298.42 892L1357.8 869.244L1346.36 816.291C1351.6 811.898 1356.42 807.055 1360.77 801.822L1412.54 814.636L1438 756.719L1393.02 729.832C1393.45 722.949 1393.45 716.435 1393.02 709.565L1437.58 682.678L1414.23 624.748L1362.47 635.921C1357.99 630.664 1353.02 625.817 1347.63 621.438L1359.08 572.642L1300.11 548.231L1272.52 590.434C1265.42 589.759 1258.27 589.402 1251.32 590.011L1224.16 547ZM1261.92 665.31C1291.93 665.31 1316.23 689.006 1316.23 718.262C1316.23 747.519 1291.93 771.215 1261.92 771.215C1231.92 771.215 1207.61 747.519 1207.61 718.262C1207.61 689.006 1231.92 665.31 1261.92 665.31Z" fill="#FFDC4D"/>
<path d="M1311.51 2659C1330.71 2638.2 1332.18 2473.33 1330.51 2393.5L1577.01 2426.5C1563.51 2473.17 1532.21 2579.7 1515.01 2632.5C1497.81 2685.3 1495.18 2743.17 1496.01 2765.5L1036.51 2782C1120.18 2749.67 1292.31 2679.8 1311.51 2659Z" fill="#F07CF2"/>
<path d="M1505.51 2848L1495.01 2749.5C1478.51 2749.5 1423.41 2751.8 1335.01 2761C1246.61 2770.2 1151.18 2757.17 1114.51 2749.5C978.511 2780.7 926.177 2828.17 917.011 2848H1505.51Z" fill="black"/>
<path d="M2398.01 2659.5C2378.81 2638.7 2340.34 2470.83 2342.01 2391L2106.51 2422.5C2120.01 2469.17 2177.31 2580.2 2194.51 2633C2211.71 2685.8 2214.34 2743.67 2213.51 2766L2673.01 2782.5C2589.34 2750.17 2417.21 2680.3 2398.01 2659.5Z" fill="#F07CF2"/>
<path d="M2204.01 2848.5L2214.51 2750C2231.01 2750 2286.11 2752.3 2374.51 2761.5C2462.91 2770.7 2558.34 2757.67 2595.01 2750C2731.01 2781.2 2783.34 2828.67 2792.51 2848.5H2204.01Z" fill="black"/>
<path d="M1731.01 706C1779.81 756 1851.34 738.833 1881.01 724C1898.34 718 1953.41 709.6 2035.01 724C2116.61 738.4 2329.68 883 2426.01 953.5C2514.01 1015.54 2640.51 1091.5 2606.01 1208.5C2571.51 1325.5 2298.75 1438.05 2208.01 1499C2181.56 1516.77 2156 1536.28 2132.41 1555.5L2058.47 1318C2174.81 1253.77 2309.18 1192.03 2305.51 1174C2300.71 1150.4 2275.84 1133.83 2264.01 1128.5C2264.01 1128.5 2196.51 1095.8 2144.51 1079C2092.51 1062.2 2058.51 1119 2048.01 1149.5H1449.51C1356.01 1226.17 1213.51 1361.5 1128.51 1382C1043.51 1402.5 1006.51 1372.5 906.011 1255C805.511 1137.5 557.511 790.5 548.011 755.5C540.411 727.5 556.177 709.5 565.011 704C561.411 659.2 593.511 652.333 610.011 654.5C610.011 620.9 635.344 613.5 648.011 614C642.177 600.333 630.911 563.9 632.511 527.5C634.111 491.1 659.177 503.333 671.511 514L718.01 608.5C718.01 608.5 992.011 1075 1103.01 1082.5C1111.15 1083.05 1226.18 989.333 1278.01 936C1338.68 882.167 1466.81 770.4 1494.01 754C1533.61 698 1668.51 698.667 1731.01 706Z" fill="#F07CF2"/>
<path d="M613.011 661.5C615.209 674.689 628.086 704.385 662.011 723.165M662.011 723.165C720.011 748 713.511 691 686.511 653M662.011 723.165C670.011 738.944 686.611 769.8 653.011 775C619.411 780.2 582.011 734.833 572.011 710.5" stroke="black" stroke-width="8" stroke-linecap="round"/>
<path d="M768.011 786.5C720.011 749.5 715.011 708 723.011 678.5C727.079 663.5 735.811 657.9 747.011 663.5" stroke="black" stroke-width="8" stroke-linecap="round"/>
<path d="M568.511 783.5C575.844 792.167 594.311 811.8 611.511 813C628.711 814.2 631.011 795.167 630.011 785.5" stroke="black" stroke-width="8" stroke-linecap="round"/>
<path d="M2310.01 1171.5C2316.84 1167.17 2341.11 1157.9 2383.51 1155.5" stroke="black" stroke-width="8" stroke-linecap="round"/>
<path d="M1104.51 1093.76C1110.33 1099.38 1125.04 1120.79 1137.34 1161.44" stroke="black" stroke-width="8" stroke-linecap="round"/>
<path d="M1731.01 706C1779.81 756 1851.34 738.833 1881.01 724C1898.34 718 1953.41 709.6 2035.01 724C2116.61 738.4 2329.68 883 2426.01 953.5L2264.01 1128.5C2264.01 1128.5 2196.51 1095.8 2144.51 1079C2092.51 1062.2 2058.51 1119 2048.01 1149.5H1449.51L1278.01 936C1338.68 882.167 1466.81 770.4 1494.01 754C1533.61 698 1668.51 698.667 1731.01 706Z" fill="#D1EAFF"/>
<path d="M1729.01 713.5C1742.84 732.5 1788.31 767 1859.51 753" stroke="black" stroke-width="8" stroke-linecap="round"/>
<path d="M1745.51 745C1753.51 751.5 1777.51 768 1816.01 768" stroke="black" stroke-width="8" stroke-linecap="round"/>
<path d="M1449.51 1150C1549.51 1013.2 1586.01 797.666 1594.01 707.499C1608.51 703 1668.51 699.501 1678.51 703L1675.01 902.498H1879.51V723.998C1901.11 716.798 1949.01 713.5 1975.01 715.998C1968.21 880.798 2039.18 1074 2075.51 1150C2070.18 1160 2062.71 1199.2 2075.51 1276C2088.31 1352.8 2318.18 2090 2431.51 2449L2127.51 2484L1779.51 1632L1575.51 2484L1284.01 2449L1449.51 1150Z" fill="#3D98E7"/>
<path d="M1324.96 2366.11C1347.89 2378.63 1374.85 2381.53 1399.92 2374.17C1424.99 2366.81 1446.1 2349.79 1458.62 2326.86C1471.14 2303.93 1474.04 2276.97 1466.68 2251.91C1459.32 2226.84 1442.3 2205.72 1419.37 2193.21L1401.07 2226.73C1415.11 2234.39 1425.53 2247.32 1430.03 2262.67C1434.54 2278.01 1432.76 2294.52 1425.1 2308.56C1417.43 2322.6 1404.51 2333.01 1389.16 2337.52C1373.81 2342.03 1357.3 2340.25 1343.27 2332.59L1324.96 2366.11Z" fill="#0E76D0"/>
<path d="M1515.96 1235.11C1538.89 1247.63 1565.85 1250.53 1590.92 1243.17C1615.99 1235.81 1637.1 1218.79 1649.62 1195.86C1662.14 1172.93 1665.04 1145.97 1657.68 1120.91C1650.32 1095.84 1633.3 1074.72 1610.37 1062.21L1592.07 1095.73C1606.11 1103.39 1616.53 1116.32 1621.03 1131.67C1625.54 1147.01 1623.76 1163.52 1616.1 1177.56C1608.43 1191.6 1595.51 1202.01 1580.16 1206.52C1564.81 1211.03 1548.3 1209.25 1534.27 1201.59L1515.96 1235.11Z" fill="#0E76D0"/>
<path d="M1659.62 788.862C1647.1 811.791 1625.99 828.807 1600.92 836.167C1592.1 838.757 1583.04 840.077 1574.01 840.154L1581.51 801.384C1584.42 800.978 1587.31 800.358 1590.16 799.521C1605.51 795.014 1618.43 784.596 1626.1 770.558C1633.76 756.521 1635.54 740.013 1631.03 724.666C1628.82 717.123 1624.81 709.537 1620.01 703.5C1630.89 702.513 1649.88 701.916 1662.6 701.516L1663.11 701.5C1664.9 705.506 1666.43 709.649 1667.68 713.905C1675.04 738.971 1672.14 765.934 1659.62 788.862Z" fill="#0E76D0"/>
<path d="M1917.57 966.009C1891.48 967.441 1865.9 958.453 1846.44 941.022C1834.7 930.507 1825.78 917.44 1820.23 903H1863.3C1865.81 906.464 1868.69 909.678 1871.93 912.575C1883.84 923.247 1899.5 928.75 1915.47 927.873C1931.44 926.996 1946.41 919.811 1957.09 907.898L1985.53 933.383C1968.1 952.841 1943.65 964.576 1917.57 966.009Z" fill="#0E76D0"/>
<path d="M1482.51 1497.56C1471.63 1521.32 1470.64 1548.42 1479.75 1572.9C1488.86 1597.39 1507.32 1617.25 1531.07 1628.12C1554.83 1639 1581.93 1639.99 1606.41 1630.88C1630.9 1621.77 1650.76 1603.31 1661.63 1579.55L1626.9 1563.66C1620.25 1578.2 1608.09 1589.51 1593.1 1595.08C1578.11 1600.66 1561.51 1600.05 1546.97 1593.39C1532.43 1586.74 1521.12 1574.58 1515.55 1559.59C1509.97 1544.59 1510.58 1528 1517.23 1513.46L1482.51 1497.56Z" fill="#0E76D0"/>
<path d="M2037.51 1992.56C2026.63 2016.32 2025.64 2043.42 2034.75 2067.9C2043.86 2092.39 2062.32 2112.25 2086.07 2123.12C2109.83 2134 2136.93 2134.99 2161.41 2125.88C2185.9 2116.77 2205.76 2098.31 2216.63 2074.55L2181.9 2058.66C2175.25 2073.2 2163.09 2084.51 2148.1 2090.08C2133.11 2095.66 2116.51 2095.05 2101.97 2088.39C2087.43 2081.74 2076.12 2069.58 2070.55 2054.59C2064.97 2039.59 2065.58 2023 2072.23 2008.46L2037.51 1992.56Z" fill="#0E76D0"/>
<path d="M2230.73 2430.05C2255.18 2439.23 2282.28 2438.33 2306.07 2427.53C2329.86 2416.72 2348.38 2396.92 2357.56 2372.46C2366.75 2348 2365.84 2320.9 2355.04 2297.11C2344.24 2273.33 2324.43 2254.81 2299.97 2245.62L2286.55 2281.38C2301.52 2287 2313.65 2298.34 2320.26 2312.9C2326.87 2327.47 2327.43 2344.06 2321.81 2359.04C2316.18 2374.01 2304.84 2386.14 2290.28 2392.75C2275.72 2399.36 2259.12 2399.92 2244.15 2394.3L2230.73 2430.05Z" fill="#0E76D0"/>
<path d="M1915.63 1592.32C1902.76 1615.05 1899.45 1641.97 1906.43 1667.14C1913.4 1692.32 1930.1 1713.69 1952.83 1726.56C1975.57 1739.43 2002.48 1742.74 2027.66 1735.76C2052.83 1728.78 2074.2 1712.09 2087.07 1689.36L2053.83 1670.54C2045.95 1684.46 2032.87 1694.68 2017.45 1698.95C2002.04 1703.23 1985.56 1701.2 1971.64 1693.32C1957.72 1685.44 1947.5 1672.36 1943.23 1656.94C1938.96 1641.53 1940.99 1625.05 1948.87 1611.13L1915.63 1592.32Z" fill="#0E76D0"/>
<path d="M1776.51 1268.56C1765.63 1292.32 1764.64 1319.42 1773.75 1343.9C1782.86 1368.39 1801.32 1388.25 1825.07 1399.12C1848.83 1410 1875.93 1410.99 1900.41 1401.88C1924.9 1392.77 1944.76 1374.31 1955.63 1350.55L1920.9 1334.66C1914.25 1349.2 1902.09 1360.51 1887.1 1366.08C1872.11 1371.66 1855.51 1371.05 1840.97 1364.39C1826.43 1357.74 1815.12 1345.58 1809.55 1330.59C1803.97 1315.59 1804.58 1299 1811.23 1284.46L1776.51 1268.56Z" fill="#0E76D0"/>
<path d="M1603.72 2017.86C1616.24 2040.79 1637.35 2057.81 1662.42 2065.17C1666.57 2066.39 1670.78 2067.33 1675.01 2067.98L1684.01 2030.65C1680.37 2030.27 1676.74 2029.57 1673.18 2028.52C1657.83 2024.01 1644.9 2013.6 1637.24 1999.56C1629.57 1985.52 1627.8 1969.01 1632.3 1953.67C1636.81 1938.32 1647.23 1925.39 1661.27 1917.73L1642.96 1884.21C1620.03 1896.72 1603.02 1917.84 1595.66 1942.91C1588.3 1967.97 1591.2 1994.93 1603.72 2017.86Z" fill="#0E76D0"/>
<path d="M1961.01 1036.5H1816.01C1810.81 1128.9 1857.18 1166.33 1887.01 1173C1961.51 1161.5 1964.84 1069.5 1961.01 1036.5Z" fill="#0E76D0"/>
<path d="M1831.61 1261.28L1747.98 1329.62L2116.86 1781.08L2200.5 1712.74L1831.61 1261.28Z" fill="black"/>
<path d="M1685.57 1084.67C1717.67 1074.17 1752.43 1075.13 1783.9 1087.38C1815.38 1099.63 1841.64 1122.42 1858.2 1151.86C1874.76 1181.3 1880.6 1215.57 1874.72 1248.83C1868.85 1282.09 1851.62 1312.29 1825.98 1334.28C1800.33 1356.26 1767.86 1368.68 1734.09 1369.4C1700.32 1370.13 1667.34 1359.13 1640.78 1338.26C1614.21 1317.4 1595.7 1287.98 1588.4 1255C1581.1 1222.02 1585.46 1187.53 1600.74 1157.4L1669.1 1192.07C1661.84 1206.38 1659.77 1222.76 1663.24 1238.43C1666.71 1254.09 1675.5 1268.07 1688.12 1277.98C1700.74 1287.89 1716.4 1293.11 1732.44 1292.77C1748.48 1292.42 1763.9 1286.53 1776.08 1276.08C1788.26 1265.64 1796.45 1251.3 1799.24 1235.5C1802.03 1219.7 1799.25 1203.42 1791.39 1189.44C1783.52 1175.46 1771.05 1164.63 1756.1 1158.81C1741.15 1152.99 1724.64 1152.54 1709.39 1157.53L1685.57 1084.67Z" fill="black"/>
<path d="M2332.44 1876.34C2349.13 1846.97 2355.11 1812.72 2349.38 1779.44C2343.65 1746.15 2326.55 1715.88 2301 1693.78C2275.45 1671.69 2243.03 1659.13 2209.27 1658.26C2175.5 1657.39 2142.48 1668.25 2115.82 1689C2089.17 1709.75 2070.53 1739.1 2063.09 1772.04C2055.64 1804.99 2059.86 1839.5 2075 1869.69C2090.15 1899.88 2115.3 1923.89 2146.16 1937.61C2177.03 1951.34 2211.69 1953.94 2244.26 1944.97L2223.91 1871.07C2208.44 1875.33 2191.97 1874.1 2177.32 1867.57C2162.66 1861.05 2150.71 1849.65 2143.52 1835.31C2136.32 1820.97 2134.32 1804.58 2137.86 1788.93C2141.39 1773.28 2150.24 1759.35 2162.9 1749.49C2175.56 1739.64 2191.25 1734.48 2207.29 1734.89C2223.33 1735.3 2238.73 1741.27 2250.86 1751.76C2263 1762.26 2271.12 1776.63 2273.84 1792.45C2276.56 1808.26 2273.72 1824.52 2265.79 1838.47L2332.44 1876.34Z" fill="black"/>
<path d="M1882.01 1427L2090.51 1301L2162.01 1534L2041.01 1612.5C2037.51 1630.5 2025.71 1668.7 2006.51 1677.5C1987.31 1686.3 1972.84 1661.5 1968.01 1648C1935.61 1660.8 1921.18 1634.67 1918.01 1620C1884.01 1611.2 1879.84 1573.67 1882.01 1556C1808.41 1517.2 1851.34 1453.83 1882.01 1427Z" fill="#F07CF2"/>
<path d="M1884.51 1548.5C1885.34 1535 1892.71 1503.6 1915.51 1486" stroke="black" stroke-width="8" stroke-linecap="round"/>
<path d="M1920.51 1605.5C1921.34 1592 1928.71 1560.6 1951.51 1543" stroke="black" stroke-width="8" stroke-linecap="round"/>
<path d="M1969.51 1636.5C1970.34 1623 1977.71 1591.6 2000.51 1574" stroke="black" stroke-width="8" stroke-linecap="round"/>
<path d="M2006.01 1634L2046.51 1614" stroke="black" stroke-width="8" stroke-linecap="round"/>
<path d="M2000.51 1350L2060.22 1311L2207.37 1504.38L2151.66 1546.77L2000.51 1350Z" fill="black"/>
<path d="M2111.51 1493C2142.99 1493 2168.51 1467.48 2168.51 1436C2168.51 1404.52 2142.99 1379 2111.51 1379C2080.03 1379 2054.51 1404.52 2054.51 1436C2054.51 1467.48 2080.03 1493 2111.51 1493Z" fill="#D1EAFF"/>
<path d="M1752.16 657.842C1748.63 684.199 1736.58 698.262 1730.2 706.836C1762.57 751.291 1835.93 762.739 1880.01 743.325V644.83L1752.16 657.842Z" fill="#F07CF2"/>
<path d="M1950.36 573.394C1933.54 647.2 1863.19 694.104 1793.24 678.156C1773.15 673.577 1744.21 671.486 1729.34 658.859C1692.42 627.511 1685.05 568.257 1697.05 515.643C1713.87 441.837 1784.22 394.934 1854.17 410.881C1924.12 426.828 1967.19 499.588 1950.36 573.394Z" fill="#F07CF2"/>
<path d="M1843.61 525.051C1799.31 517.547 1773.57 481.655 1766.24 464.647C1757.34 460.158 1737.57 460.765 1729.78 499.1C1721.98 537.435 1703.16 560.672 1694.72 567.498C1698.48 595.411 1709.77 628.949 1724.76 646.607C1733.79 657.246 1744.8 665.181 1750.12 668.611C1747.78 681.602 1741.17 691.051 1739.73 692.197L1494.44 674.915L1505.3 657.04C1523.84 626.168 1601.07 609.561 1617.01 597.858C1632.95 586.155 1573.63 504.795 1629.51 484.796C1685.39 464.796 1676.49 449.495 1705.73 396.287C1729.12 353.721 1786.65 357.024 1812.49 363.996C1888.68 343.378 1955.15 377.348 1966.93 423.981C1975.8 444.584 1965.33 477.59 2003.27 480.636C2042.76 480.79 2080.45 512.094 2085.02 537.321C2091.44 572.701 2048.47 604.494 2104.38 625.792C2149.1 642.83 2183.07 680.797 2194.47 697.651L2094.74 715.913L2074.83 684.239L2056.77 718.169L1879.98 723.876C1875.99 718.541 1866.65 700.073 1861.25 668.877C1855.86 637.681 1869.45 610.085 1876.91 600.186C1884.27 578.268 1887.91 532.555 1843.61 525.051Z" fill="black"/>
<path d="M1752.84 614.731L1769.47 574.622L1783.04 614.241L1752.84 614.731Z" fill="#DC34DF"/>
<path d="M1777.81 683.6C1783.83 685.569 1798.43 687.298 1808.66 678.464" stroke="black" stroke-width="8" stroke-linecap="round"/>
<path d="M1767.54 578.078L1751 614.79L1780.98 613.639" stroke="black" stroke-width="8" stroke-linecap="round"/>
<path d="M1790.8 640.184L1756.07 639.526C1758.49 644.003 1765.57 651.356 1771.97 652.574C1782.52 654.586 1787.48 646.34 1790.8 640.184Z" stroke="black" stroke-width="8"/>
<path d="M1728.87 579.547C1733.96 580.708 1739.03 577.52 1740.19 572.427C1741.35 567.333 1738.17 562.262 1733.07 561.101C1727.98 559.94 1722.91 563.128 1721.75 568.221C1720.59 573.315 1723.77 578.386 1728.87 579.547Z" fill="black"/>
<path d="M1799.23 582.549C1804.32 583.71 1809.39 580.522 1810.55 575.429C1811.71 570.335 1808.53 565.264 1803.43 564.103C1798.34 562.942 1793.27 566.13 1792.11 571.223C1790.95 576.317 1794.13 581.388 1799.23 582.549Z" fill="black"/>
<path d="M1793 541.139C1801.15 538.312 1812.7 538.078 1819.99 542.094" stroke="black" stroke-width="8" stroke-linecap="round"/>
<path d="M1740.14 539.918C1731.88 537.412 1720.33 537.631 1713.2 541.93" stroke="black" stroke-width="8" stroke-linecap="round"/>
<path d="M1895.59 615.171C1908.17 624.535 1928.78 618.145 1941.61 600.899C1954.45 583.653 1954.65 562.081 1942.07 552.717C1929.48 543.353 1908.88 549.743 1896.05 566.989C1883.21 584.235 1883.01 605.807 1895.59 615.171Z" fill="#DC34DF"/>
<path d="M1900.84 582.406C1906.39 575.481 1920.28 565.739 1929 564.501" stroke="black" stroke-width="8" stroke-linecap="round"/>
<path d="M1921.5 568.13C1924.18 572.13 1926.96 580.904 1926.19 585.621" stroke="black" stroke-width="8" stroke-linecap="round"/>
<path d="M1818.3 625.243C1823.54 626.438 1828.76 623.156 1829.96 617.91C1831.15 612.665 1827.87 607.443 1822.63 606.247C1817.38 605.052 1812.16 608.334 1810.96 613.58C1809.77 618.825 1813.05 624.047 1818.3 625.243Z" fill="#DC34DF"/>
<path d="M1719.36 608.352C1724.61 609.547 1729.83 606.265 1731.03 601.019C1732.22 595.774 1728.94 590.552 1723.7 589.356C1718.45 588.161 1713.23 591.443 1712.03 596.689C1710.84 601.934 1714.12 607.156 1719.36 608.352Z" fill="#DC34DF"/>
</svg>
