<svg width="3000" height="3000" viewBox="0 0 3000 3000" fill="none" xmlns="http://www.w3.org/2000/svg">
<path d="M2796.13 1308H1898.19L1869.13 1987L2264.68 1975.18L2616.47 1964.66L2796.13 1959.29V1308Z" fill="#D1EAFF"/>
<path d="M457.127 2228H609.205L614.127 1549L547.134 1560.82L487.554 1571.34L457.127 1576.71V2228Z" fill="#D1EAFF"/>
<path d="M693.127 2228H845.205L850.127 1817L783.134 1824.16L723.554 1830.52L693.127 1833.77V2228Z" fill="#D1EAFF"/>
<path d="M1165.13 2228H1317.2L1322.13 2023L1255.13 2026.57L1195.55 2029.74L1165.13 2031.37V2228Z" fill="#D1EAFF"/>
<path d="M929.127 2228H1081.2L1086.13 1657L1019.13 1666.94L959.554 1675.79L929.127 1680.3V2228Z" fill="#D1EAFF"/>
<path d="M2599.92 2362L2640.82 2465.53L2783.72 2396.79L2691.82 2529.44L2810.13 2592.33L2673.62 2609.14L2681.72 2720.15L2599.92 2644.61L2486.94 2748L2526.23 2609.14L2416.13 2592.33L2508.03 2529.44L2469.86 2440.78L2559.03 2465.53L2599.92 2362Z" fill="black"/>
<path d="M2617.92 2378L2658.82 2481.53L2801.72 2412.79L2709.82 2545.44L2828.13 2608.33L2691.62 2625.14L2699.72 2736.15L2617.92 2660.61L2504.94 2764L2544.23 2625.14L2434.13 2608.33L2526.03 2545.44L2487.86 2456.78L2577.03 2481.53L2617.92 2378Z" fill="#FFDC4D"/>
<path d="M792.029 674L823.16 752.855L931.931 700.5L861.98 801.534L952.029 849.432L848.126 862.235L854.291 946.789L792.029 889.25L706.029 968L735.933 862.235L652.127 849.432L722.078 801.534L693.029 734L760.898 752.855L792.029 674Z" fill="#FFDC4D"/>
<path d="M2146.13 949.855C2179.39 781.137 2332 469.126 2377.96 566.079C2435.41 687.271 2413.24 1034.21 2335.62 1054.41C2258.01 1074.61 2370.9 568.456 2467.67 604.1C2545.08 632.616 2499.92 780.739 2467.67 851.236C2479.09 756.184 2493.77 623.112 2652.13 534" stroke="#FFDC4D" stroke-width="12" stroke-linecap="round"/>
<path d="M906.127 1581.61C892.454 1511.99 829.722 1383.23 810.828 1423.24C787.211 1473.25 796.326 1616.42 828.231 1624.76C860.135 1633.09 813.729 1424.22 773.952 1438.93C742.13 1450.7 760.693 1511.82 773.952 1540.91C769.256 1501.69 763.223 1446.77 698.127 1410" stroke="black" stroke-width="12" stroke-linecap="round"/>
<path d="M568.127 1032.5V257.5H1602.13V435H2003.13V1002" stroke="#FFDC4D" stroke-width="12"/>
<path d="M491.47 2576.67C491.47 2620.67 481.555 2706.53 437.554 2706.53C393.552 2706.53 332.127 2620.67 332.127 2576.67C332.127 2532.67 367.797 2497 411.799 2497C455.8 2497 491.47 2532.67 491.47 2576.67Z" fill="black"/>
<path d="M713.523 2576.67C713.523 2620.67 703.607 2706.53 659.606 2706.53C615.604 2706.53 554.179 2620.67 554.179 2576.67C554.179 2532.67 589.849 2497 633.851 2497C677.852 2497 713.523 2532.67 713.523 2576.67Z" fill="black"/>
<path d="M935.219 2576.67C935.219 2620.67 925.304 2706.53 881.302 2706.53C837.301 2706.53 775.875 2620.67 775.875 2576.67C775.875 2532.67 811.546 2497 855.547 2497C899.549 2497 935.219 2532.67 935.219 2576.67Z" fill="black"/>
<path d="M2491.13 825.264C2491.13 845.844 2486.46 886 2465.75 886C2445.04 886 2416.13 845.844 2416.13 825.264C2416.13 804.684 2432.92 788 2453.63 788C2474.34 788 2491.13 804.684 2491.13 825.264Z" fill="black"/>
<path d="M2579.91 849.391C2579.91 865.07 2576.37 895.664 2560.7 895.664C2545.02 895.664 2523.13 865.07 2523.13 849.391C2523.13 833.711 2535.84 821 2551.52 821C2567.2 821 2579.91 833.711 2579.91 849.391Z" fill="black"/>
<path d="M2500.91 948.391C2500.91 964.07 2497.37 994.664 2481.7 994.664C2466.02 994.664 2444.13 964.07 2444.13 948.391C2444.13 932.711 2456.84 920 2472.52 920C2488.2 920 2500.91 932.711 2500.91 948.391Z" fill="black"/>
<path d="M2580.03 948.391C2580.03 964.07 2576.5 994.664 2560.82 994.664C2545.14 994.664 2523.25 964.07 2523.25 948.391C2523.25 932.711 2535.96 920 2551.64 920C2567.32 920 2580.03 932.711 2580.03 948.391Z" fill="black"/>
<path d="M2659.03 948.391C2659.03 964.07 2655.5 994.664 2639.82 994.664C2624.14 994.664 2602.25 964.07 2602.25 948.391C2602.25 932.711 2614.96 920 2630.64 920C2646.32 920 2659.03 932.711 2659.03 948.391Z" fill="black"/>
<path d="M2501.91 1047.39C2501.91 1063.07 2498.37 1093.66 2482.7 1093.66C2467.02 1093.66 2445.13 1063.07 2445.13 1047.39C2445.13 1031.71 2457.84 1019 2473.52 1019C2489.2 1019 2501.91 1031.71 2501.91 1047.39Z" fill="black"/>
<path d="M2704.13 1076.42C2704.13 1108.13 2696.97 1170 2665.21 1170C2633.46 1170 2589.13 1108.13 2589.13 1076.42C2589.13 1044.71 2614.87 1019 2646.63 1019C2678.38 1019 2704.13 1044.71 2704.13 1076.42Z" fill="black"/>
<path d="M1244.13 2251.77H1399.35L1682.13 2241.69V1019.45H268.765L223.018 2293.69L703.627 2276.57" stroke="black" stroke-width="12"/>
<path d="M1292.13 876.74H1753.27M1292.13 794H1582.01H1292.13Z" stroke="black" stroke-width="12" stroke-linecap="round"/>
<path d="M268.763 1019.45H1682.13V1272.48H259.626L268.763 1019.45Z" fill="black"/>
<path d="M379.987 1210.6C413.205 1210.6 440.133 1181.66 440.133 1145.96C440.133 1110.26 413.205 1081.32 379.987 1081.32C346.769 1081.32 319.841 1110.26 319.841 1145.96C319.841 1181.66 346.769 1210.6 379.987 1210.6Z" fill="white"/>
<path d="M536.365 1210.6C569.582 1210.6 596.511 1181.66 596.511 1145.96C596.511 1110.26 569.582 1081.32 536.365 1081.32C503.147 1081.32 476.219 1110.26 476.219 1145.96C476.219 1181.66 503.147 1210.6 536.365 1210.6Z" fill="white"/>
<path d="M692.742 1210.6C725.959 1210.6 752.888 1181.66 752.888 1145.96C752.888 1110.26 725.959 1081.32 692.742 1081.32C659.524 1081.32 632.596 1110.26 632.596 1145.96C632.596 1181.66 659.524 1210.6 692.742 1210.6Z" fill="white"/>
<path d="M1569.32 1449.4L1026.13 1465.25L1066.04 555H2299.13V1428.1L2052.42 1435.3" stroke="black" stroke-width="12"/>
<path d="M2299.13 555H1066.13V661H2299.13V555Z" fill="black"/>
<path d="M1974.32 1904.18L1431.13 1916L1471.04 1237H2704.13V1888.29L2457.42 1893.66" stroke="black" stroke-width="12"/>
<path d="M1526.56 1861.03H1928.89M1526.56 1816.94H1779.47H1526.56Z" stroke="black" stroke-width="12" stroke-linecap="round"/>
<path d="M2704.13 1237H1471.13V1363H2704.13V1237Z" fill="black"/>
<path d="M1252.13 2318C1252.13 2407.58 1216.5 2470.01 1162.29 2510.23C1107.84 2550.64 1034.1 2569 957.627 2569C881.17 2569 817.972 2550.65 773.923 2510.61C729.978 2470.67 704.127 2408.25 704.127 2318C704.127 2137.53 827.703 1993 978.127 1993C1128.55 1993 1252.13 2137.53 1252.13 2318Z" stroke="black" stroke-width="12"/>
<path d="M1249.59 2234.86L1383.85 2267.07C1437.63 2367.9 1405.92 2429.52 1401.13 2520C1303.1 2513.79 1057.97 2495.66 1029.25 2467.75C1000.12 2439.42 1032.45 2428.89 1050.43 2428.38L1005.1 2415.88C992.66 2413.04 967.363 2402.83 965.702 2384.72C964.041 2366.61 998.269 2365.96 1015.59 2367.9C926.628 2351.22 952.839 2308.71 975.229 2307.51C986.164 2306.93 1030.61 2312.46 1051.37 2315.83C1043.6 2313.64 1025.83 2306.66 1017.01 2296.3C1005.98 2283.36 1011.51 2271.09 1028.22 2264.41C1042.45 2258.71 1152.76 2267.2 1186.07 2270.41C1212.72 2272.99 1239.87 2247.77 1249.59 2234.86Z" fill="#ED4546"/>
<path d="M1056.42 2315.77L1174.99 2327.42" stroke="black" stroke-width="12" stroke-linecap="round"/>
<path d="M1029.69 2371.72L1148.27 2383.36" stroke="black" stroke-width="12" stroke-linecap="round"/>
<path d="M1061.92 2435.49L1180.5 2447.13" stroke="black" stroke-width="12" stroke-linecap="round"/>
<path d="M1015.45 218.336C1047.31 254.493 1071.75 296.573 1087.35 342.173C1102.95 387.772 1109.42 435.999 1106.38 484.098C1103.35 532.198 1090.87 579.228 1069.66 622.505C1048.45 665.782 1018.92 704.457 982.763 736.322C946.606 768.187 904.526 792.619 858.926 808.221C813.326 823.824 765.1 830.292 717.001 827.257C668.901 824.222 621.871 811.743 578.594 790.532C535.317 769.321 496.642 739.793 464.777 703.636L635.719 552.987C647.801 566.696 662.464 577.892 678.873 585.934C695.281 593.976 713.113 598.708 731.35 599.858C749.587 601.009 767.872 598.557 785.161 592.641C802.45 586.725 818.405 577.462 832.114 565.38C845.824 553.298 857.019 538.635 865.061 522.226C873.103 505.818 877.835 487.986 878.986 469.749C880.137 451.512 877.684 433.227 871.768 415.938C865.852 398.648 856.589 382.694 844.507 368.984L1015.45 218.336Z" stroke="black" stroke-width="12"/>
<path d="M1084.63 563L1183.63 854.5L988.127 913L913.127 784.5C988.627 738 1026.13 687.834 1043.13 658.5C1031.96 614.167 1017.13 572 1027.13 532C1037.68 489.786 1067.63 518.5 1084.63 563Z" fill="#ED4546"/>
<path d="M991.127 886.5C960.727 906.9 978.46 928.667 991.127 937C983.627 937 966.027 943.5 955.627 969.5C942.628 1002 968.627 1020.5 968.627 1106.5C968.627 1192.5 955.627 1349 968.627 1468C981.627 1587 1047.13 1650 1127.63 1720.5C1208.13 1791 1269.63 1925.5 1325.13 1991C1369.53 2043.4 1490.29 2093.83 1545.13 2112.5C1545.13 2148.9 1486.13 2225.33 1456.63 2259C1428.79 2251.5 1369.53 2247.1 1355.13 2289.5C1337.13 2342.5 1373.13 2363 1373.13 2403.5C1373.13 2444 1352.63 2497 1373.13 2517C1389.53 2533 1426.96 2535.67 1443.63 2535C1451.63 2549.4 1485.96 2566 1502.13 2572.5C1502.13 2639.57 1630.73 2739.12 1689.13 2757.5C1770.13 2783 2235.13 2914 2422.13 2732C2609.13 2550 2553.63 2034 2513.13 1809C2480.73 1629 2378.29 1493 2331.13 1447.5C2322.79 1434 2299.03 1402.5 2270.63 1384.5C2116.63 1283.5 1792.63 1397 1767.63 1407C1742.63 1417 1767.63 1447.5 1744.63 1447.5C1726.23 1447.5 1699.96 1472.83 1689.13 1485.5C1664.63 1485.5 1601.53 1482 1545.13 1468C1474.63 1450.5 1373.13 1364 1325.13 1283.5C1277.13 1203 1256.63 1002.5 1239.13 937C1221.63 871.5 1196.13 886.5 1188.63 848.5C1181.13 810.5 1029.13 861 991.127 886.5Z" fill="#FFDC4D"/>
<path d="M1682.13 1508.5C1674.13 1538.33 1658.63 1631 1660.63 1763C1662.63 1895 1614.46 2022 1590.13 2069" stroke="black" stroke-width="12" stroke-linecap="round"/>
<path d="M1606.63 2568.5C1642.13 2556.5 1755.13 2559 1861.13 2568.5C1967.13 2578 2139.13 2502.5 2169.63 2465C2200.13 2427.5 2515.63 2060 2487.63 1819.5C2463.14 1609.13 2360.71 1511.77 2169.63 1610C2127.96 1631 2033.83 1715 1990.63 1883C1936.63 2093 1936.13 2223 1846.63 2232C1757.13 2241 1626.13 2196.5 1562.63 2227C1497.63 2250.5 1474.83 2276.8 1457.63 2366C1440.43 2455.2 1434.79 2523.83 1449.13 2544" stroke="black" stroke-width="12" stroke-linecap="round"/>
<path d="M1370.13 2482.43C1389.29 2487.27 1430.23 2497.03 1440.63 2497.43M1361.13 2302.93C1381.79 2298.6 1428.53 2291.83 1450.13 2299.43L1361.13 2302.93ZM1370.13 2352.43L1444.63 2367.93L1370.13 2352.43ZM1384.13 2422.93L1436.63 2420.43L1384.13 2422.93Z" stroke="black" stroke-width="12" stroke-linecap="round"/>
<path d="M1011.48 888.659C1010.82 900.382 1009.82 925.309 1011.09 931.233M1141.79 848.361C1148.08 859.128 1160.07 884.069 1157.75 897.703L1141.79 848.361ZM1106.84 863.138L1106.68 908.059L1106.84 863.138ZM1057.23 884.848L1066.96 913.869L1057.23 884.848Z" stroke="black" stroke-width="12" stroke-linecap="round"/>
<path d="M2299.13 1468C2240.63 1490.83 2115.83 1544.3 2084.63 1575.5C2045.63 1614.5 1944.63 1664 1929.13 1656M1775.13 1480C1791.29 1509.17 1828.73 1573.5 1849.13 1597.5" stroke="black" stroke-width="12" stroke-linecap="round"/>
<path d="M2216.13 1435C2206.13 1439.33 2182.43 1450.8 2167.63 1462C2149.13 1476 2130.63 1497.5 2118.13 1508.5" stroke="black" stroke-width="12" stroke-linecap="round"/>
<path d="M1814.13 1427C1816.27 1429.42 1821.35 1435.81 1824.52 1442.06C1828.48 1449.87 1832.45 1461.86 1835.13 1468" stroke="black" stroke-width="12" stroke-linecap="round"/>
<path d="M2110.63 1435C2091.96 1466.67 2044.83 1538.7 2005.63 1573.5C1966.43 1608.3 1946.96 1617.67 1942.13 1618" stroke="black" stroke-width="12" stroke-linecap="round"/>
<path d="M2205.33 1212.1C2205.33 1323.72 2114.84 1414.2 2003.23 1414.2C1965.25 1414.2 1914.98 1421.72 1884.63 1403.5C1825.78 1368.17 1801.13 1285.74 1801.13 1212.1C1801.13 1100.48 1891.61 1010 2003.23 1010C2114.84 1010 2205.33 1100.48 2205.33 1212.1Z" fill="#ED4546"/>
<path d="M2031.63 986.501C1920.01 986.501 1752.63 883.884 1752.63 995.5C1752.63 1037.85 1772.63 1108.33 1803.56 1179.5C1808.25 1161.5 1819.73 1123.6 1828.13 1116C1838.63 1106.5 1891.63 1181.5 1947.63 1135.5C2003.63 1089.5 2092.63 1105 2085.13 1128.5C2080.1 1144.25 2042.63 1274.95 2135.13 1365.23C2178.11 1328.17 2219.13 1265.21 2219.13 1204C2219.13 1079.9 2205.33 986.501 2031.63 986.501Z" fill="black"/>
<path d="M2099.55 1431.61L2095.76 1371.81L1908.8 1363.48L1898.2 1419.5C1898.2 1491.5 1892.63 1603.93 1925.13 1607C1976.96 1611.9 2087.45 1453.94 2099.55 1431.61Z" fill="#ED4546"/>
<path d="M2079.92 1293.47C2100.25 1300.15 2123.3 1285.55 2131.41 1260.87C2139.52 1236.19 2129.62 1210.77 2109.3 1204.09C2088.97 1197.41 2065.92 1212.01 2057.81 1236.69C2049.7 1261.37 2059.6 1286.79 2079.92 1293.47Z" fill="#D7090A"/>
<path d="M2068.12 1248.78C2074.93 1237.43 2093.86 1223.8 2111.26 1226.83" stroke="black" stroke-width="8" stroke-linecap="round"/>
<path d="M2100.16 1228.55C2102.21 1231.72 2106.54 1242.12 2107.2 1249.22" stroke="black" stroke-width="8" stroke-linecap="round"/>
<path d="M1869.54 1301.65L1912.88 1237.62L1925.33 1311.36L1869.54 1301.65Z" fill="#D7090A"/>
<path d="M1908.3 1242.24L1869.13 1297.94L1921.62 1306.07" stroke="black" stroke-width="8" stroke-linecap="round"/>
<path d="M1898.13 1342.57C1904.94 1342.82 1922.05 1341.66 1935.97 1335" stroke="black" stroke-width="8" stroke-linecap="round"/>
<path d="M1950.13 1179.03C1956.94 1178.78 1974.05 1179.94 1987.97 1186.6" stroke="black" stroke-width="8" stroke-linecap="round"/>
<path d="M1862.97 1184.03C1856.16 1183.78 1839.06 1184.94 1825.13 1191.6" stroke="black" stroke-width="8" stroke-linecap="round"/>
<path d="M1954.13 1416.62C1970.78 1419.65 2000.3 1421.92 2023.01 1403" stroke="black" stroke-width="8" stroke-linecap="round"/>
<path d="M1856.16 1241.53C1863.27 1241.53 1869.03 1235.77 1869.03 1228.66C1869.03 1221.55 1863.27 1215.79 1856.16 1215.79C1849.05 1215.79 1843.29 1221.55 1843.29 1228.66C1843.29 1235.77 1849.05 1241.53 1856.16 1241.53Z" fill="black"/>
<path d="M1963 1239.56C1970.11 1239.56 1975.87 1233.8 1975.87 1226.69C1975.87 1219.58 1970.11 1213.82 1963 1213.82C1955.89 1213.82 1950.13 1219.58 1950.13 1226.69C1950.13 1233.8 1955.89 1239.56 1963 1239.56Z" fill="black"/>
<path d="M1968.77 1303.28C1982.93 1303.28 1994.41 1291.8 1994.41 1277.64C1994.41 1263.48 1982.93 1252 1968.77 1252C1954.61 1252 1943.13 1263.48 1943.13 1277.64C1943.13 1291.8 1954.61 1303.28 1968.77 1303.28Z" fill="#D7090A"/>
<path d="M1837.77 1298.28C1851.93 1298.28 1863.41 1286.8 1863.41 1272.64C1863.41 1258.48 1851.93 1247 1837.77 1247C1823.61 1247 1812.13 1258.48 1812.13 1272.64C1812.13 1286.8 1823.61 1298.28 1837.77 1298.28Z" fill="#D7090A"/>
</svg>
