<svg width="3000" height="3000" viewBox="0 0 3000 3000" fill="none" xmlns="http://www.w3.org/2000/svg">
<path d="M249.127 2669C315.456 2383.38 619.764 1855.17 711.418 2019.31C825.986 2224.47 781.766 2811.81 626.999 2846C472.233 2880.2 697.348 2023.33 890.304 2083.67C1044.67 2131.95 954.623 2382.7 890.304 2502.05C913.084 2341.14 942.349 2115.86 1258.13 1965" stroke="#FFDC4D" stroke-width="12" stroke-linecap="round"/>
<path d="M2409.13 370.472C2420.7 311.857 2473.78 203.462 2489.76 237.145C2509.75 279.248 2502.04 399.778 2475.04 406.795C2448.04 413.813 2487.31 237.97 2520.97 250.354C2547.89 260.26 2532.19 311.719 2520.97 336.211C2524.94 303.189 2530.05 256.958 2585.13 226" stroke="#FFDC4D" stroke-width="12" stroke-linecap="round"/>
<path d="M1010.13 1779.55C1010.13 1801.39 1004.22 1844 977.982 1844C951.748 1844 915.127 1801.39 915.127 1779.55C915.127 1757.71 936.393 1740 962.627 1740C988.86 1740 1010.13 1757.71 1010.13 1779.55Z" fill="black"/>
<path d="M860.127 1804.26C860.127 1839.75 852.1 1909 816.477 1909C780.855 1909 731.127 1839.75 731.127 1804.26C731.127 1768.77 760.005 1740 795.627 1740C831.249 1740 860.127 1768.77 860.127 1804.26Z" fill="black"/>
<path d="M2589.13 2095.26C2589.13 2115.84 2584.46 2156 2563.75 2156C2543.04 2156 2514.13 2115.84 2514.13 2095.26C2514.13 2074.68 2530.92 2058 2551.63 2058C2572.34 2058 2589.13 2074.68 2589.13 2095.26Z" fill="black"/>
<path d="M2677.91 2119.39C2677.91 2135.07 2674.37 2165.66 2658.7 2165.66C2643.02 2165.66 2621.13 2135.07 2621.13 2119.39C2621.13 2103.71 2633.84 2091 2649.52 2091C2665.2 2091 2677.91 2103.71 2677.91 2119.39Z" fill="black"/>
<path d="M2598.91 2218.39C2598.91 2234.07 2595.37 2264.66 2579.7 2264.66C2564.02 2264.66 2542.13 2234.07 2542.13 2218.39C2542.13 2202.71 2554.84 2190 2570.52 2190C2586.2 2190 2598.91 2202.71 2598.91 2218.39Z" fill="black"/>
<path d="M2678.03 2218.39C2678.03 2234.07 2674.5 2264.66 2658.82 2264.66C2643.14 2264.66 2621.25 2234.07 2621.25 2218.39C2621.25 2202.71 2633.96 2190 2649.64 2190C2665.32 2190 2678.03 2202.71 2678.03 2218.39Z" fill="black"/>
<path d="M2757.03 2218.39C2757.03 2234.07 2753.5 2264.66 2737.82 2264.66C2722.14 2264.66 2700.25 2234.07 2700.25 2218.39C2700.25 2202.71 2712.96 2190 2728.64 2190C2744.32 2190 2757.03 2202.71 2757.03 2218.39Z" fill="black"/>
<path d="M2599.91 2317.39C2599.91 2333.07 2596.37 2363.66 2580.7 2363.66C2565.02 2363.66 2543.13 2333.07 2543.13 2317.39C2543.13 2301.71 2555.84 2289 2571.52 2289C2587.2 2289 2599.91 2301.71 2599.91 2317.39Z" fill="black"/>
<path d="M639.627 957.778C453.545 829.382 328.093 972.611 288.627 1060.28C334.379 1088.27 436.093 1138.51 513.627 1106.11C591.161 1073.71 632.991 992.944 639.627 957.778Z" fill="#D1EAFF"/>
<path d="M475.627 1095C522.847 1095 561.127 1056.72 561.127 1009.5C561.127 962.28 522.847 924 475.627 924C428.407 924 390.127 962.28 390.127 1009.5C390.127 1056.72 428.407 1095 475.627 1095Z" fill="black"/>
<path d="M291.127 1031.11L234.127 999.613" stroke="black" stroke-width="12" stroke-linecap="round"/>
<path d="M331.662 972.024L281.398 930.613" stroke="black" stroke-width="12" stroke-linecap="round"/>
<path d="M398.954 920.769L361.328 867.613" stroke="black" stroke-width="12" stroke-linecap="round"/>
<path d="M479.754 894.763L472.9 830" stroke="black" stroke-width="12" stroke-linecap="round"/>
<path d="M576.657 906.978L595.417 844.613" stroke="black" stroke-width="12" stroke-linecap="round"/>
<path d="M639.627 939.441L675.456 885.058" stroke="black" stroke-width="12" stroke-linecap="round"/>
<path d="M2653.43 1922.29C2593.23 1791.76 2478.2 1829.46 2428.2 1864.63C2444.16 1894.77 2483.52 1955.21 2536.44 1962.61C2589.35 1970.01 2638.4 1939.38 2653.43 1922.29Z" fill="#D1EAFF"/>
<path d="M2519.25 1944.22C2545.08 1959.52 2578.42 1950.99 2593.72 1925.15C2609.02 1899.32 2600.49 1865.98 2574.65 1850.68C2548.82 1835.38 2515.48 1843.91 2500.18 1869.75C2484.88 1895.58 2493.41 1928.92 2519.25 1944.22Z" fill="black"/>
<path d="M2439.02 1849.49L2418.04 1813.79" stroke="black" stroke-width="12" stroke-linecap="round"/>
<path d="M2480.34 1830.3L2466.26 1791.36" stroke="black" stroke-width="12" stroke-linecap="round"/>
<path d="M2533.76 1824.06L2530.4 1782.79" stroke="black" stroke-width="12" stroke-linecap="round"/>
<path d="M2586.39 1836.02L2603.62 1798.37" stroke="black" stroke-width="12" stroke-linecap="round"/>
<path d="M2635.44 1874.09L2665.91 1846.06" stroke="black" stroke-width="12" stroke-linecap="round"/>
<path d="M2659.37 1912.26L2696.59 1894.12" stroke="black" stroke-width="12" stroke-linecap="round"/>
<path d="M2014.22 243.695C1972.29 152.772 1892.16 179.037 1857.34 203.535C1868.45 224.53 1895.87 266.629 1932.73 271.782C1969.58 276.935 2003.75 255.597 2014.22 243.695Z" fill="#D1EAFF"/>
<path d="M1920.75 258.97C1938.75 269.627 1961.97 263.68 1972.63 245.686C1983.29 227.693 1977.34 204.467 1959.35 193.81C1941.35 183.153 1918.13 189.1 1907.47 207.094C1896.81 225.087 1902.76 248.313 1920.75 258.97Z" fill="black"/>
<path d="M1864.87 192.987L1850.26 168.119" stroke="black" stroke-width="12" stroke-linecap="round"/>
<path d="M1893.65 179.619L1883.84 152.495" stroke="black" stroke-width="12" stroke-linecap="round"/>
<path d="M1930.86 175.275L1928.52 146.528" stroke="black" stroke-width="12" stroke-linecap="round"/>
<path d="M1967.52 183.601L1979.52 157.376" stroke="black" stroke-width="12" stroke-linecap="round"/>
<path d="M2001.69 210.125L2022.91 190.595" stroke="black" stroke-width="12" stroke-linecap="round"/>
<path d="M2018.36 236.707L2044.28 224.07" stroke="black" stroke-width="12" stroke-linecap="round"/>
<path d="M605.051 214.536L701.245 266.518V370.482L605.051 422.465L508.856 370.482V266.518L605.051 214.536Z" fill="#D1EAFF"/>
<path d="M483.821 253.329L605.127 187.819L726.433 253.329V383.671L605.127 449.181L483.821 383.671V253.329Z" stroke="black" stroke-width="12"/>
<path d="M560.876 294.92L605.051 271.013L649.226 294.92V342.08L605.051 365.987L560.876 342.08V294.92Z" stroke="black" stroke-width="12"/>
<path d="M604.682 257.052V223.535" stroke="black" stroke-width="12" stroke-linecap="round"/>
<path d="M605.419 414.395V380.878" stroke="black" stroke-width="12" stroke-linecap="round"/>
<path d="M514.641 367.638L547.444 348.604" stroke="black" stroke-width="12" stroke-linecap="round"/>
<path d="M660.773 288.19L693.577 269.155" stroke="black" stroke-width="12" stroke-linecap="round"/>
<path d="M547.443 288.19L514.64 269.155" stroke="black" stroke-width="12" stroke-linecap="round"/>
<path d="M695.791 369.5L662.987 350.465" stroke="black" stroke-width="12" stroke-linecap="round"/>
<path d="M455.051 1442.06L520.803 1479.53V1554.47L455.051 1591.94L389.299 1554.47V1479.53L455.051 1442.06Z" fill="#D1EAFF"/>
<path d="M375.39 1471.48L455.127 1425.91L534.863 1471.48V1562.52L455.127 1608.09L375.39 1562.52V1471.48Z" stroke="black" stroke-width="12"/>
<path d="M426.755 1500.91L455.051 1484.76L483.347 1500.91V1533.09L455.051 1549.24L426.755 1533.09V1500.91Z" stroke="black" stroke-width="12"/>
<path d="M454.799 1472.71V1448.55" stroke="black" stroke-width="12" stroke-linecap="round"/>
<path d="M455.303 1586.12V1561.96" stroke="black" stroke-width="12" stroke-linecap="round"/>
<path d="M393.253 1552.42L415.675 1538.7" stroke="black" stroke-width="12" stroke-linecap="round"/>
<path d="M493.139 1495.15L515.562 1481.43" stroke="black" stroke-width="12" stroke-linecap="round"/>
<path d="M415.674 1495.15L393.252 1481.43" stroke="black" stroke-width="12" stroke-linecap="round"/>
<path d="M517.075 1553.76L494.652 1540.04" stroke="black" stroke-width="12" stroke-linecap="round"/>
<path d="M1978.16 603.881L2462.61 500L2479.39 578.222L1997.13 681L1978.16 603.881Z" fill="black"/>
<path d="M1696.13 1012C1863.47 1012 1999.13 876.342 1999.13 709C1999.13 541.658 1863.47 406 1696.13 406C1528.79 406 1393.13 541.658 1393.13 709C1393.13 876.342 1528.79 1012 1696.13 1012Z" stroke="black" stroke-width="12"/>
<path d="M1696.13 973C1841.93 973 1960.13 854.803 1960.13 709C1960.13 623.802 1919.77 548.03 1857.13 499.759L1696.13 973Z" fill="#D1EAFF"/>
<path d="M1604.13 461.473C1503.68 498.819 1432.13 595.553 1432.13 709C1432.13 748.062 1440.61 785.143 1455.84 818.5L1604.13 461.473Z" fill="#D1EAFF"/>
<path d="M1522.13 907.549L1696.13 445C1744.01 445 1788.91 457.746 1827.63 480.03L1650.13 969.006C1601.61 960.481 1557.65 938.706 1522.13 907.549Z" fill="#D1EAFF"/>
<path d="M1223.63 482.639L1353.96 559.569V713.431L1223.63 790.361L1093.29 713.431V559.569L1223.63 482.639Z" fill="#D1EAFF"/>
<path d="M1076.77 549.675L1223.63 462.968L1370.48 549.675V723.325L1223.63 810.032L1076.77 723.325V549.675Z" stroke="black" stroke-width="12"/>
<path d="M1161.64 599.736L1223.63 563.095L1285.61 599.736V673.265L1223.63 709.906L1161.64 673.265V599.736Z" stroke="black" stroke-width="12"/>
<path d="M1223.13 545.561V495.958" stroke="black" stroke-width="12" stroke-linecap="round"/>
<path d="M1224.13 778.419V728.816" stroke="black" stroke-width="12" stroke-linecap="round"/>
<path d="M1101.13 709.221L1145.57 681.051" stroke="black" stroke-width="12" stroke-linecap="round"/>
<path d="M1299.13 591.644L1343.57 563.474" stroke="black" stroke-width="12" stroke-linecap="round"/>
<path d="M1145.57 591.644L1101.13 563.474" stroke="black" stroke-width="12" stroke-linecap="round"/>
<path d="M1346.57 711.977L1302.13 683.807" stroke="black" stroke-width="12" stroke-linecap="round"/>
<path d="M1015.13 885.999L1084.63 1008L899.627 1091C852.127 982.832 758.527 756.799 764.127 717.999C769.727 679.199 800.46 651.166 813.627 651.499C813.627 642.999 821.627 617.892 838.127 606.499C859.127 591.999 884.127 591.499 894.627 596.999C916.627 531.499 983.627 558.833 998.127 570.999C1084.63 551.499 1134.13 587.999 1146.13 605.999C1158.13 623.999 1128.13 641.499 1122.13 638.499C1116.13 635.499 1073.63 624.999 1047.63 631.999C1005.13 643.999 1008.13 691.499 1020.13 717.999C1032.13 744.499 1056.63 729.999 1096.13 717.999C1135.63 705.999 1172.63 687.995 1172.63 717.999C1172.63 734.999 1131.13 798.275 1062.63 818.499C1020.63 830.899 1008.46 874.499 1015.13 885.999Z" fill="#ED4546"/>
<path d="M2375.63 472.5L2557.63 829.999L2355.13 931.999C2332.63 884.166 2282.03 783.299 2259.63 762.499C2231.63 736.499 2208.63 727.999 2182.63 716.499C2156.63 704.999 2071.13 698.499 2074.63 681.999C2078.13 665.499 2096.13 658.499 2117.13 649.999C2133.93 643.199 2172.46 647.166 2189.63 649.999L2156.63 577.999C2152.29 563.666 2146.23 533.099 2156.63 525.499C2176.13 511.25 2188.29 522.333 2197.63 525.499C2195.29 521.666 2194.23 510.899 2208.63 498.499C2223.03 486.099 2240.63 493.333 2247.63 498.499C2245.63 494.166 2248.65 475.76 2264.63 468C2282.13 459.5 2296.96 468.166 2306.63 472.5C2304.29 469 2303.83 453.9 2324.63 443.5C2345.43 433.1 2367.63 460.333 2375.63 472.5Z" fill="#ED4546"/>
<path d="M1013.63 564C994.127 566.5 965.127 587.5 965.127 621.5" stroke="black" stroke-width="12" stroke-linecap="round"/>
<path d="M2311.13 480.5L2327.13 512" stroke="black" stroke-width="12" stroke-linecap="round"/>
<path d="M2252.13 512L2268.13 543.5" stroke="black" stroke-width="12" stroke-linecap="round"/>
<path d="M2202.13 538L2218.13 569.5" stroke="black" stroke-width="12" stroke-linecap="round"/>
<path d="M902.988 575C899.647 577.5 883.895 600.465 880.658 629.279" stroke="black" stroke-width="12" stroke-linecap="round"/>
<path d="M827.988 623C824.647 625.5 808.895 648.465 805.658 677.279" stroke="black" stroke-width="12" stroke-linecap="round"/>
<path d="M865.127 2371.5L1535.63 1766H2250.63L2015.13 2388.5C2086.83 2364.19 2181.63 2379 2252.63 2406L2195.63 2656.37L1841.13 2649C1713.13 2646.6 1700.13 2551 1709.63 2503.5L1796.63 2057.5L1288.63 2388.5L1352.63 2405.62L1288.63 2650.48L901.627 2635C719.627 2589.8 801.46 2440.5 865.127 2371.5Z" fill="black"/>
<path d="M1537.72 1969L917.627 2453L1277.13 2474.5M1517.63 1898C1518.02 1913.79 1523.1 1941.91 1537.72 1969L1517.63 1898ZM1582.13 2018.5C1561.93 2005.25 1547.63 1987.36 1537.72 1969L1582.13 2018.5Z" stroke="white" stroke-width="12" stroke-linecap="round"/>
<path d="M1510.78 2412.5L1570.64 2505.5M1510.78 2412.5C1510.78 2412.5 1499.13 2397.5 1496.63 2397.5C1452.63 2397.5 1447.63 2444 1447.63 2444L1344.63 2412.5L1271.13 2647L1743.13 2666.5C1743.13 2666.5 1727.89 2617.24 1706.63 2593.5C1674.39 2557.51 1594.13 2542 1594.13 2542L1570.64 2505.5L1510.78 2412.5ZM1510.78 2412.5H1613.63L1638.13 2505.5H1570.64L1510.78 2412.5Z" stroke="black" stroke-width="12"/>
<path d="M2419.78 2413L2479.64 2506M2419.78 2413C2419.78 2413 2408.13 2398 2405.63 2398C2361.63 2398 2356.63 2444.5 2356.63 2444.5L2253.63 2413L2177.63 2650L2652.13 2667C2652.13 2667 2636.89 2617.74 2615.63 2594C2583.39 2558.01 2503.13 2542.5 2503.13 2542.5L2479.64 2506L2419.78 2413ZM2419.78 2413H2522.63L2547.13 2506H2479.64L2419.78 2413Z" stroke="black" stroke-width="12"/>
<path d="M905.581 1082.99C843.181 1105.79 879.581 1206.16 905.581 1253.49V1331.49L968.081 1437.49L1030.08 1538.49C1062.91 1565.32 1140.48 1615.29 1188.08 1600.49C1247.58 1581.99 1434.08 1527.99 1467.58 1538.49C1501.08 1548.99 1470.08 1587.49 1467.58 1618.99C1465.58 1644.19 1503.08 1743.16 1522.08 1789.49C1677.58 1897.99 2034.58 1820.49 2063.08 1804.99C2091.58 1789.49 2254.58 1810.49 2285.58 1789.49C2316.58 1768.49 2272.58 1543.49 2285.58 1514.99C2298.58 1486.49 2342.58 1481.49 2376.08 1460.99C2409.58 1440.49 2376.08 1419.49 2404.58 1408.99C2427.38 1400.59 2536.75 1395.16 2588.58 1393.49C2649.91 1364.16 2780.78 1295.09 2813.58 1253.49C2854.58 1201.49 2793.08 1082.99 2772.58 1082.99C2752.08 1082.99 2692.08 916.991 2671.58 906.991C2651.08 896.991 2622.08 826.491 2606.58 805.991C2591.08 785.491 2505.58 849.991 2482.58 862.991C2459.58 875.991 2314.08 935.491 2342.58 947.991C2365.38 957.991 2374.41 1004.16 2376.08 1025.99C2370.08 1031.99 2361.68 1047.09 2376.08 1059.49C2390.48 1071.89 2421.75 1099.32 2435.58 1111.49H2342.58C2276.08 1094.16 2130.18 1064.19 2078.58 1082.99C2026.98 1101.79 1941.41 1075.16 1905.08 1059.49C1815.88 1148.69 1739.08 1112.32 1708.08 1082.99C1701.08 1094.99 1673.38 1117.49 1648.58 1111.49C1617.58 1103.99 1529.58 1116.49 1434.08 1157.99C1338.58 1199.49 1333.08 1180.99 1291.58 1180.99C1250.08 1180.99 1255.08 1227.99 1247.58 1204.49C1240.08 1180.99 1216.58 1160.49 1206.08 1136.99C1195.58 1113.49 1177.58 1082.99 1159.58 1082.99C1141.58 1082.99 1133.58 1023.49 1110.08 999.991C1086.58 976.491 983.581 1054.49 905.581 1082.99Z" fill="#3D98E7"/>
<path d="M2031.63 1113C2022.03 1107.8 2015.63 1094.5 2013.63 1088.5C2020.46 1089.33 2035.13 1088.5 2049.13 1088.5C2066.63 1088.5 2079.63 1082.5 2087.13 1079C2093.13 1076.2 2145.96 1077.83 2171.63 1079C2168.29 1087.5 2159.33 1109 2150.13 1127C2138.63 1149.5 2099.63 1171.5 2079.63 1166.5C2059.63 1161.5 2043.63 1119.5 2031.63 1113Z" fill="#0E76D0"/>
<path d="M1700 1123.81C1728.14 1200.5 1742.62 1345.74 1665.63 1374C1622.29 1389.9 1591.5 1328.11 1533.22 1286.96C1487.95 1254.99 1433.49 1259.67 1421.18 1226.14C1410.03 1195.77 1409.59 1177.84 1417.9 1165.5C1450.13 1151.5 1474.12 1140.88 1520.63 1123.81C1597.62 1095.56 1685.63 1103.5 1700 1123.81Z" fill="#0E76D0"/>
<path d="M1125.13 1595C1069.25 1534.96 1075.6 1445.6 1135.4 1389.95C1161.54 1365.62 1208 1394.43 1262.83 1386.41C1333.42 1376.08 1388.85 1334.9 1420.3 1368.69C1454.01 1404.92 1418.17 1458.56 1387.63 1512C1380.35 1524.74 1374.91 1537.87 1369.8 1550.5C1317.07 1565.33 1210.83 1595 1205.63 1595C1199.13 1595 1171.63 1611.5 1138.13 1598.5L1125.13 1595Z" fill="#0E76D0"/>
<path d="M2209.83 1622.78C2211.59 1585.01 2189.49 1548.41 2179.56 1502.83C2164.46 1433.48 2153.04 1359.61 2103.6 1357.31C2019.63 1353.39 2029.8 1436.28 1986.13 1502.83C1952.2 1554.52 1915.09 1567.33 1913.16 1608.96C1908.72 1704.18 1971.54 1784.46 2053.47 1788.28C2135.39 1792.09 2205.4 1718 2209.83 1622.78Z" fill="#0E76D0"/>
<path d="M2623.17 1232.14C2610.05 1216.14 2587.64 1209.35 2566.9 1194.46C2535.35 1171.8 2503.63 1145.95 2482.68 1163.13C2447.11 1192.32 2410 1204.93 2416.63 1248C2421.78 1281.45 2483.01 1317.61 2497.48 1335.25C2530.57 1375.59 2585.54 1385.21 2620.25 1356.74C2654.96 1328.26 2656.27 1272.48 2623.17 1232.14Z" fill="#0E76D0"/>
<path d="M2602.63 989.5C2623.43 1029.5 2692.63 1014.5 2724.63 1002L2715.13 987C2705.79 963.5 2684.73 915.2 2675.13 910C2665.53 904.8 2651.13 884.5 2645.13 875C2642.63 880.833 2637.13 894.8 2635.13 904C2632.63 915.5 2576.63 939.5 2602.63 989.5Z" fill="#0E76D0"/>
<path d="M996.627 1274.5C951.827 1286.1 910.627 1252.67 895.627 1234.5C883.628 1215.3 873.961 1167.17 870.627 1145.5C870.127 1128.5 874.427 1092.8 895.627 1086C916.827 1079.2 971.794 1051.83 996.627 1039C1029.63 1042.5 1015.63 1120.5 1007.13 1145.5C998.627 1170.5 1052.63 1260 996.627 1274.5Z" fill="#0E76D0"/>
<path d="M2272.13 1770.5C2280.46 1749.17 2294.63 1703.6 2284.63 1692M1546.13 1787C1541.79 1766 1507.23 1720.2 1517.63 1683L1546.13 1787ZM1619.63 1808.5C1615.29 1774.5 1609.23 1703.6 1619.63 1692V1808.5ZM1704.13 1824.5C1704.13 1779.17 1704.13 1691.7 1704.13 1704.5V1824.5ZM1811.63 1824.5C1815.79 1808.83 1821.63 1767.5 1811.63 1727.5V1824.5ZM1921.13 1808.5C1926.29 1798.33 1937.03 1771.9 1938.63 1747.5L1921.13 1808.5ZM2046.13 1704.5C2047.29 1739.17 2046.43 1808.5 2033.63 1808.5L2046.13 1704.5ZM2128.63 1787C2144.13 1772 2175.53 1737 2177.13 1717L2128.63 1787ZM2204.13 1770.5C2218.96 1752.67 2248.63 1714.5 2248.63 1704.5L2204.13 1770.5Z" stroke="black" stroke-width="12" stroke-linecap="round"/>
<path d="M1064.68 1406.15C1059.66 1397.05 1051.21 1376.17 1057.58 1365.46C1065.54 1352.08 1197.1 1225.85 1240.63 1223.5" stroke="black" stroke-width="12" stroke-linecap="round"/>
<path d="M2444.13 1112.5C2435.29 1105.5 2519.48 1073.48 2570.63 1107C2644.63 1155.5 2689.63 1170.5 2700.13 1194" stroke="black" stroke-width="12" stroke-linecap="round"/>
<path d="M1066.63 1019C1076.79 1015 1101.03 1018.2 1116.63 1063M901.627 1097.5C899.627 1110.5 896.827 1138.3 901.627 1145.5V1097.5ZM938.627 1085L942.127 1126L938.627 1085ZM974.627 1069C979.96 1078 991.127 1097.5 993.127 1103.5L974.627 1069ZM1019.13 1044C1026.13 1051.5 1042.23 1070.2 1050.63 1085L1019.13 1044Z" stroke="black" stroke-width="12" stroke-linecap="round"/>
<path d="M1693.63 1133.5C1708.29 1141.83 1749.23 1157.8 1795.63 1155C1842.03 1152.2 1864.96 1139.5 1870.63 1133.5" stroke="black" stroke-width="12" stroke-linecap="round"/>
<path d="M1761.63 1172C1771.46 1174 1796.33 1176.8 1817.13 1172" stroke="black" stroke-width="12" stroke-linecap="round"/>
<path d="M2412.38 919.773C2403.19 925.684 2391.62 947.218 2418.86 986.06M2572.51 831.771C2584.23 837.746 2608.42 851.722 2611.46 859.825L2572.51 831.771ZM2540.74 854.487L2571.96 881.29L2540.74 854.487ZM2506.72 874.346C2510.9 883.934 2520.2 904.392 2523.9 909.522L2506.72 874.346ZM2460.42 895.842C2462.42 905.906 2468.18 929.899 2475.28 945.365L2460.42 895.842Z" stroke="black" stroke-width="12" stroke-linecap="round"/>
<path d="M1556.29 880.719C1556.29 896.813 1551.95 911.11 1545.26 921.207C1538.53 931.349 1529.91 936.667 1521.21 936.667C1512.51 936.667 1503.89 931.349 1497.16 921.207C1490.46 911.11 1486.13 896.813 1486.13 880.719C1486.13 864.626 1490.46 850.329 1497.16 840.232C1503.89 830.09 1512.51 824.771 1521.21 824.771C1529.91 824.771 1538.53 830.09 1545.26 840.232C1551.95 850.329 1556.29 864.626 1556.29 880.719Z" stroke="black" stroke-width="12"/>
<path d="M1645.13 1040L1675.63 1118C1761.81 1157.63 1872.36 1157.59 1931.13 1069.5C1931.13 1069.5 1853.55 1004.18 1813.99 969.403C1829.86 905.281 1828.86 775.734 1697.92 770.518C1534.25 763.997 1499.69 922.453 1533.6 994.182C1560.72 1051.57 1603.63 1044.5 1645.13 1040Z" fill="#ED4546"/>
<path d="M1707.05 972.663C1734.42 972.663 1756.61 950.475 1756.61 923.105C1756.61 895.735 1734.42 873.547 1707.05 873.547C1679.68 873.547 1657.49 895.735 1657.49 923.105C1657.49 950.475 1679.68 972.663 1707.05 972.663Z" fill="#D7090A"/>
<path d="M1671.84 917.888C1678.5 914.845 1693.04 908.759 1697.92 908.759" stroke="black" stroke-width="8" stroke-linecap="round"/>
<path d="M1692.13 915.584C1694.74 920.364 1700.05 930.836 1700.38 934.484" stroke="black" stroke-width="8" stroke-linecap="round"/>
<path d="M1488.6 868.33L1672.49 874.199" stroke="black" stroke-width="12"/>
<path d="M1542.01 930.425C1547.63 931.666 1554.27 923.263 1556.83 911.658C1559.39 900.052 1556.9 889.638 1551.27 888.397C1545.65 887.156 1539.01 895.559 1536.45 907.164C1533.89 918.77 1536.38 929.184 1542.01 930.425Z" fill="#D7090A"/>
<path d="M1546.64 795.948L1648.36 868.982L1660.1 912.019C1661.84 903.107 1671.32 885.675 1695.31 887.24C1725.31 889.196 1733.79 936.146 1710.31 953.753C1691.53 967.838 1672.49 959.621 1665.32 953.753L1695.31 1102.5L2047.13 1054C2047.13 1054 2021.49 971.489 1954.19 844.203C1886.9 716.916 1796.17 715.09 1759.22 730.088C1665.32 682.616 1578.37 754.215 1546.64 795.948Z" fill="black"/>
<path d="M1959.81 651.443C1980.73 685.929 1969.48 730.996 1934.68 752.102C1899.89 773.208 1764.43 780.298 1764.43 780.298C1764.43 780.298 1824.13 648.321 1858.93 627.215C1893.72 606.109 1938.89 616.956 1959.81 651.443Z" fill="black"/>
</svg>
