<svg width="3000" height="3000" viewBox="0 0 3000 3000" fill="none" xmlns="http://www.w3.org/2000/svg">
<path d="M714.313 2396.9L54.6641 1271.39L1434.31 264.306L2234.94 1286.9L714.313 2396.9Z" stroke="black" stroke-width="12"/>
<path d="M1748.84 1160.71C1681.88 1109.81 1517.94 1024.4 1397.86 1089.96C1247.77 1171.91 1280.96 1358.82 1260.08 1406.86C1239.19 1454.9 1180.81 1733.28 626.724 1406.13" stroke="#FFDC4D" stroke-width="12" stroke-linecap="round"/>
<path d="M695.127 1562L559.627 1694L612.127 1731L580.127 1825.5L665.627 1847L687.127 1731L734.127 1736.5L695.127 1562Z" fill="#FFDC4D" stroke="black"/>
<path d="M688.31 1537L529.127 1692.16L590.803 1735.65L553.21 1846.73L653.654 1872L678.912 1735.65L734.127 1742.11L688.31 1537Z" stroke="black" stroke-width="12"/>
<path d="M571.127 686L172.127 967L303.127 1171" stroke="#FFDC4D" stroke-width="12" stroke-linecap="round"/>
<path d="M777.625 985.316L1179.69 691.822L772.494 193.146L488.142 400.712L471.006 548.846L777.625 985.316Z" stroke="black" stroke-width="12"/>
<path d="M1292.49 643.63L846.264 969.355L498.222 474.5L515.127 305.729L830.275 75.6831L1292.49 643.63Z" fill="#FFDC4D"/>
<path d="M515.127 305L498.127 474L609.127 386L515.127 305Z" fill="black"/>
<path d="M46.7432 1269.74L1435.18 256.237L1577.27 450.893L171.469 1477.08L46.7432 1269.74Z" fill="black"/>
<path d="M1085.63 1109.5L1508.13 821.5M877.627 1109.5L1469.63 719L877.627 1109.5Z" stroke="black" stroke-width="12" stroke-linecap="round"/>
<path d="M828.781 2507.79L599.472 2661.46M870.648 2403.6L555.876 2621.55L870.648 2403.6Z" stroke="black" stroke-width="12" stroke-linecap="round"/>
<path d="M230.886 1337.13C253.636 1320.53 258.616 1288.62 242.009 1265.87C225.403 1243.12 193.498 1238.14 170.747 1254.75C147.997 1271.35 143.017 1303.26 159.624 1326.01C176.231 1348.76 208.136 1353.74 230.886 1337.13Z" fill="white"/>
<path d="M348.812 1251.05C371.562 1234.45 376.542 1202.54 359.935 1179.79C343.328 1157.04 311.423 1152.06 288.673 1168.67C265.923 1185.27 260.943 1217.18 277.55 1239.93C294.156 1262.68 326.061 1267.66 348.812 1251.05Z" fill="white"/>
<path d="M466.735 1164.97C489.486 1148.37 494.466 1116.46 477.859 1093.71C461.252 1070.96 429.347 1065.98 406.597 1082.59C383.847 1099.19 378.867 1131.1 395.473 1153.85C412.08 1176.6 443.985 1181.58 466.735 1164.97Z" fill="white"/>
<path d="M1277.13 1638.93C1257.73 1555.38 1168.76 1400.87 1141.97 1448.89C1108.47 1508.9 1121.4 1680.71 1166.65 1690.71C1211.9 1700.71 1146.08 1450.06 1089.67 1467.71C1044.54 1481.83 1070.86 1555.19 1089.67 1590.1C1083.01 1543.03 1074.45 1477.13 982.127 1433" stroke="black" stroke-width="12" stroke-linecap="round"/>
<path d="M665.127 2806.69C627.328 2644.12 453.912 2343.49 401.681 2436.91C336.392 2553.68 361.591 2887.97 449.788 2907.43C537.986 2926.89 409.699 2439.2 299.739 2473.54C211.77 2501.02 263.085 2643.74 299.739 2711.67C286.757 2620.08 270.08 2491.86 90.127 2406" stroke="#FFDC4D" stroke-width="12" stroke-linecap="round"/>
<path d="M2902.13 451.311C2845.92 613.876 2588.06 914.508 2510.39 821.09C2413.31 704.318 2450.78 370.03 2581.93 350.568C2713.07 331.106 2522.32 818.801 2358.81 784.456C2228.01 756.98 2304.31 614.259 2358.81 546.333C2339.51 637.919 2314.71 766.138 2047.13 852" stroke="#FFDC4D" stroke-width="12" stroke-linecap="round"/>
<path d="M677.127 463.164L860.236 329L986.717 501.623L794.127 647L677.127 463.164Z" fill="black"/>
<path d="M896.751 141.926C919.96 126.459 930.581 101.627 920.474 86.4604C910.368 71.2941 883.36 71.5374 860.151 87.0039C836.942 102.47 826.32 127.303 836.427 142.47C846.534 157.636 873.542 157.393 896.751 141.926Z" fill="black"/>
<path d="M932.751 190.926C955.96 175.459 966.581 150.627 956.474 135.46C946.368 120.294 919.36 120.537 896.151 136.004C872.942 151.47 862.32 176.303 872.427 191.47C882.534 206.636 909.542 206.393 932.751 190.926Z" fill="black"/>
<path d="M973.751 233.926C996.96 218.459 1007.58 193.627 997.474 178.46C987.368 163.294 960.36 163.537 937.151 179.004C913.942 194.47 903.32 219.303 913.427 234.47C923.534 249.636 950.542 249.393 973.751 233.926Z" fill="black"/>
<path d="M1009.75 282.926C1032.96 267.459 1043.58 242.627 1033.47 227.46C1023.37 212.294 996.36 212.537 973.151 228.004C949.942 243.47 939.32 268.303 949.427 283.47C959.534 298.636 986.542 298.393 1009.75 282.926Z" fill="black"/>
<path d="M1045.75 328.926C1068.96 313.46 1079.58 288.627 1069.47 273.46C1059.37 258.294 1032.36 258.537 1009.15 274.004C985.941 289.47 975.319 314.303 985.426 329.47C995.533 344.636 1022.54 344.393 1045.75 328.926Z" fill="black"/>
<path d="M1081.75 377.926C1104.96 362.46 1115.58 337.627 1105.47 322.46C1095.37 307.294 1068.36 307.537 1045.15 323.004C1021.94 338.47 1011.32 363.303 1021.43 378.47C1031.53 393.636 1058.54 393.393 1081.75 377.926Z" fill="black"/>
<path d="M1122.75 420.926C1145.96 405.459 1156.58 380.627 1146.47 365.46C1136.37 350.294 1109.36 350.537 1086.15 366.004C1062.94 381.47 1052.32 406.303 1062.43 421.47C1072.53 436.636 1099.54 436.393 1122.75 420.926Z" fill="black"/>
<path d="M1158.75 469.926C1181.96 454.459 1192.58 429.627 1182.47 414.46C1172.37 399.294 1145.36 399.537 1122.15 415.004C1098.94 430.47 1088.32 455.303 1098.43 470.47C1108.53 485.636 1135.54 485.393 1158.75 469.926Z" fill="black"/>
<path d="M1256.79 1921.68L1501.76 2234.57L562.627 2822L169.774 2223.45L480.627 1996.53" stroke="black" stroke-width="12"/>
<path d="M163.258 2228.2L484.145 1993.97L592.627 2179.5L281.051 2398L163.258 2228.2Z" fill="black"/>
<path d="M317.448 2300.84C336.379 2287.02 340.523 2260.47 326.704 2241.54C312.885 2222.61 286.336 2218.46 267.405 2232.28C248.474 2246.1 244.329 2272.65 258.148 2291.58C271.967 2310.51 298.517 2314.66 317.448 2300.84Z" fill="white"/>
<path d="M415.577 2229.21C434.508 2215.39 438.652 2188.84 424.833 2169.91C411.014 2150.98 384.465 2146.83 365.534 2160.65C346.603 2174.47 342.458 2201.02 356.277 2219.95C370.096 2238.88 396.646 2243.03 415.577 2229.21Z" fill="white"/>
<path d="M513.706 2157.58C532.637 2143.76 536.781 2117.21 522.962 2098.28C509.143 2079.35 482.594 2075.2 463.663 2089.02C444.731 2102.84 440.587 2129.39 454.406 2148.32C468.225 2167.25 494.774 2171.4 513.706 2157.58Z" fill="white"/>
<path d="M1810.13 198.501C1892.53 222.901 1913.13 334.334 1913.13 387.001L1753.63 643.001C1717.79 646.667 1621.33 640.801 1522.13 588.001C1422.93 535.201 1508.46 468.334 1563.63 441.501C1579.79 429.667 1605.33 384.501 1578.13 298.501C1550.93 212.501 1471.46 206.667 1435.13 214.501C1412.46 217.667 1375.53 212.801 1409.13 168.001C1477.13 82.0009 1622.13 118.167 1686.13 147.001C1719.73 134.201 1766.79 176.001 1786.13 198.501H1810.13Z" fill="#ED4546"/>
<path d="M1152.5 2510.19L723.127 1956.49C704.588 1924.15 709.633 1890.81 767.726 1917.78C798.714 1932.16 819.869 1946.44 823.196 1950.83L763.947 1863.79C745.276 1826.47 770.182 1782.97 825.14 1826.52C838.352 1836.71 853.297 1852.62 859.117 1859.3L830.258 1806.63C807.818 1761.98 827.419 1707.79 887.438 1749.25C922.334 1774.06 942.25 1794.45 975.678 1834.86L942.923 1745.14C941.791 1716.58 951.476 1670.15 999.265 1712.99C1047.05 1755.82 1175.11 1952.63 1194.82 1983.15C1200.07 1984.74 1199.28 1992.21 1202.17 1976.56C1205.79 1956.99 1207.52 1851.41 1218.44 1808.98C1224.71 1784.6 1245.04 1755.03 1278.1 1824.33C1311.17 1893.63 1343.32 2166.98 1361.39 2195.67C1374.96 2217.21 1410.96 2276.05 1416.29 2279.33C1416.51 2279.29 1416.72 2279.26 1416.93 2279.23C1416.86 2279.52 1416.64 2279.54 1416.29 2279.33C1374.59 2285.71 1249.5 2361.26 1249.5 2361.26C1249.5 2361.26 1143.96 2425.29 1152.5 2510.19Z" fill="#ED4546"/>
<path d="M824.678 1954.67L943.144 2106.89" stroke="black" stroke-width="12" stroke-linecap="round"/>
<path d="M863.489 1864.28L981.956 2016.5" stroke="black" stroke-width="12" stroke-linecap="round"/>
<path d="M973.63 1831.83L1092.1 1984.05" stroke="black" stroke-width="12" stroke-linecap="round"/>
<path d="M1938.13 389.5C1731.73 382.3 1729.13 601.5 1753.63 712C1765.71 766.5 2265.13 1025 2270.13 1057.5C2274.13 1083.5 2210.13 1215.67 2177.63 1278.5C2117.79 1312.33 1936.33 1434.4 1689.13 1652C1441.93 1869.6 1423.46 2139 1445.13 2246.5C1438.96 2223.33 1413.73 2172.4 1362.13 2154C1297.63 2131 1256.13 2122 1141.13 2209.5C1049.13 2279.5 1038.13 2377 1044.13 2417L1099.63 2481.5C1203.96 2621.17 1429.23 2907 1495.63 2933C1578.63 2965.5 1707.63 2942 1753.63 2900.5C1790.43 2867.3 1833.63 2684 1850.63 2596.5L1901.13 2794.5C2186.63 2882 2537.13 2711.5 2564.63 2675C2592.13 2638.5 2776.63 2564 2832.13 2523C2876.53 2490.2 2915.29 2380 2929.13 2329C2898.29 2213.83 2824.63 1958.6 2776.63 1859C2716.63 1734.5 2735.13 947 2693.63 887C2660.43 839 2504.79 701 2431.13 638C2371.63 596.5 2244.03 571 2177.63 523C2094.63 463 2030.13 417 1938.13 389.5Z" fill="#3D98E7"/>
<path d="M2085.13 458.5C2057.63 497 2040.33 612.4 2085.13 660C2141.13 719.5 2370.13 657 2429.63 746C2477.23 817.2 2621.13 868 2650.63 838.5M2125.13 958C2158.63 895.5 2472.33 920.8 2479.13 988C2487.63 1072 2394.25 1034.29 2321.13 1096C2296.91 1116.44 2244.13 1199 2222.13 1188.5M1743.13 617.5C1781.13 617.5 1856.11 664.701 1861.13 727.5C1863.14 752.694 1852.63 785 1848.63 791M2722.63 1195.5C2666.13 1195.5 2648.56 1349.32 2574.63 1496C2490.07 1663.75 2257.63 1800.5 2315.63 2000C2371.5 2192.18 2795.13 2082.5 2853.63 2071M2852.63 2502C2827.13 2479.5 2827.33 2393.2 2746.13 2362C2644.63 2323 2554.11 2397.49 2429.63 2401C2268.08 2405.56 2085.13 2342.5 2017.63 2362C1963.63 2377.6 1971.79 2467.17 1982.63 2510C2024.63 2595.5 2202.13 2752.5 2213.63 2807.5M1414.13 2864.5C1454.13 2827 1483.4 2674.15 1585.63 2665.5C1687.89 2656.85 1742.63 2815.5 1788.13 2833M1159.63 2195.5C1178.63 2220 1095.33 2287.2 1126.13 2362C1164.63 2455.5 1283.94 2478.11 1297.13 2588C1303.07 2637.54 1297.13 2704.5 1283.13 2715M1893.13 1623.5C1960.96 1647.83 2112.33 1678.7 2175.13 1607.5C2237.93 1536.3 2207.63 1449.5 2184.63 1415M1612.63 1889C1703.19 1835.06 1855.53 1823 1893.13 1879C1940.13 1949 2113.68 2084.78 2124.63 2109C2176.13 2223 2094.13 2300 1849.63 2233.5C1654.03 2180.3 1595.7 2416.43 1507.63 2311.5C1456.19 2250.22 1451.83 2193.4 1476.63 2109C1501.43 2024.6 1528.47 1939.12 1612.63 1889Z" stroke="#0E76D0" stroke-width="12"/>
<path d="M1447.13 2264C1437.46 2345.17 1423.93 2514.9 1447.13 2544.5C1470.33 2574.1 1481.46 2636.5 1484.13 2664" stroke="black" stroke-width="12" stroke-linecap="round"/>
<path d="M2308.13 1030.84C2323.63 983.005 2392.33 921.639 2427.13 918.839C2470.63 915.339 2588.63 884.339 2614.13 898.839" stroke="black" stroke-width="12" stroke-linecap="round"/>
<path d="M2329.13 1051.62C2355.65 1035.44 2412.4 1034.25 2429.72 1046.9C2451.38 1062.71 2518.8 1095.53 2524.82 1112.55" stroke="black" stroke-width="12" stroke-linecap="round"/>
<path d="M1416.2 2355C1390.88 2373.01 1367.46 2424.71 1372.26 2445.62C1378.27 2471.75 1381.9 2546.65 1395.17 2558.87" stroke="black" stroke-width="12" stroke-linecap="round"/>
<path d="M1429.13 1299C1429.13 1323.12 1422.67 1344.69 1412.54 1360.04C1402.39 1375.45 1389.03 1384 1375.13 1384C1361.22 1384 1347.87 1375.45 1337.71 1360.04C1327.58 1344.69 1321.13 1323.12 1321.13 1299C1321.13 1274.88 1327.58 1253.31 1337.71 1237.96C1347.87 1222.55 1361.22 1214 1375.13 1214C1389.03 1214 1402.39 1222.55 1412.54 1237.96C1422.67 1253.31 1429.13 1274.88 1429.13 1299Z" stroke="black" stroke-width="12"/>
<path d="M1580.13 1521C1693.35 1521 1785.13 1429.22 1785.13 1316C1785.13 1202.78 1693.35 1111 1580.13 1111C1466.91 1111 1375.13 1202.78 1375.13 1316C1375.13 1429.22 1466.91 1521 1580.13 1521Z" fill="#ED4546"/>
<path d="M1642.63 1410C1682.67 1410 1715.13 1377.54 1715.13 1337.5C1715.13 1297.46 1682.67 1265 1642.63 1265C1602.59 1265 1570.13 1297.46 1570.13 1337.5C1570.13 1377.54 1602.59 1410 1642.63 1410Z" fill="#D7090A"/>
<path d="M1417.63 1375C1428.95 1375 1438.13 1364.7 1438.13 1352C1438.13 1339.3 1428.95 1329 1417.63 1329C1406.31 1329 1397.13 1339.3 1397.13 1352C1397.13 1364.7 1406.31 1375 1417.63 1375Z" fill="#D7090A"/>
<path d="M1593.13 1329C1604.63 1317.5 1630.13 1306 1647.63 1306" stroke="black" stroke-width="12" stroke-linecap="round"/>
<path d="M1627.13 1309.85C1630.92 1315.69 1638.9 1334.91 1640.13 1348" stroke="black" stroke-width="12" stroke-linecap="round"/>
<path d="M1353.83 1168.9L1542.89 1257.99L1571.63 1333C1570.78 1316.97 1585.64 1278.46 1623.96 1272.41C1671.85 1264.86 1704 1342.88 1674.19 1381.86C1650.34 1413.04 1617.14 1405.78 1603.52 1398.26L1710.35 1751.45L2300.99 1395.53C2300.99 1395.53 2194.03 1246.75 2023.68 1068C1852.09 887.953 1713.33 938.226 1661.3 977.61C1494.78 929.832 1386.93 1085.23 1353.83 1168.9Z" fill="black"/>
<path d="M1321.13 1297L1585.63 1271.5" stroke="black" stroke-width="12"/>
<path d="M1723.13 1500.5C1723.13 1571.47 1665.6 1629 1594.63 1629C1523.66 1629 1466.13 1571.47 1466.13 1500.5C1466.13 1429.53 1523.66 1372 1594.63 1372" stroke="black" stroke-width="12"/>
<path d="M1254.63 769.5L1233.13 597L1434.63 679.5L1254.63 769.5Z" fill="black"/>
<path d="M1707.64 114.083L1504.04 16L1231.24 582.29L1242.09 675.895L1252.93 640L1264.63 692.5L1303.13 658.5L1290.13 700L1358.63 692.5L1343.89 724.937L1434.85 680.373L1707.64 114.083Z" fill="#FFDC4D"/>
<path d="M1291.63 579L1537.63 79.5" stroke="black" stroke-width="12" stroke-linecap="round"/>
<path d="M1343.13 597.5L1589.13 98" stroke="black" stroke-width="12" stroke-linecap="round"/>
<path d="M1395.13 628.5L1641.13 129" stroke="black" stroke-width="12" stroke-linecap="round"/>
<path d="M1432.13 430C1469.73 440.8 1528.13 445.833 1552.63 447L1495.13 568.5C1294.63 454 1385.13 416.5 1432.13 430Z" fill="#ED4546"/>
<path d="M2645.13 1578.33C2645.13 1621.59 2654.96 1706 2698.59 1706C2742.22 1706 2803.13 1621.59 2803.13 1578.33C2803.13 1535.07 2767.76 1500 2724.13 1500C2680.5 1500 2645.13 1535.07 2645.13 1578.33Z" fill="black"/>
<path d="M2475.22 1667.83C2475.22 1692.82 2480.85 1741.57 2505.84 1741.57C2530.83 1741.57 2565.71 1692.82 2565.71 1667.83C2565.71 1642.84 2545.45 1622.59 2520.46 1622.59C2495.48 1622.59 2475.22 1642.84 2475.22 1667.83Z" fill="black"/>
<path d="M2601.11 1825.59C2601.11 1850.58 2606.74 1899.33 2631.73 1899.33C2656.72 1899.33 2691.6 1850.58 2691.6 1825.59C2691.6 1800.61 2671.34 1780.35 2646.36 1780.35C2621.37 1780.35 2601.11 1800.61 2601.11 1825.59Z" fill="black"/>
<path d="M2475.02 1825.59C2475.02 1850.58 2480.65 1899.33 2505.64 1899.33C2530.62 1899.33 2565.5 1850.58 2565.5 1825.59C2565.5 1800.61 2545.25 1780.35 2520.26 1780.35C2495.28 1780.35 2475.02 1800.61 2475.02 1825.59Z" fill="black"/>
<path d="M2349.13 1825.59C2349.13 1850.58 2354.76 1899.33 2379.74 1899.33C2404.73 1899.33 2439.61 1850.58 2439.61 1825.59C2439.61 1800.61 2419.36 1780.35 2394.37 1780.35C2369.38 1780.35 2349.13 1800.61 2349.13 1825.59Z" fill="black"/>
<path d="M2599.52 1983.36C2599.52 2008.34 2605.15 2057.1 2630.14 2057.1C2655.12 2057.1 2690.01 2008.34 2690.01 1983.36C2690.01 1958.37 2669.75 1938.12 2644.76 1938.12C2619.78 1938.12 2599.52 1958.37 2599.52 1983.36Z" fill="black"/>
<path d="M662.908 1262.39C662.908 1278.07 659.375 1308.66 643.695 1308.66C628.016 1308.66 606.127 1278.07 606.127 1262.39C606.127 1246.71 618.838 1234 634.518 1234C650.197 1234 662.908 1246.71 662.908 1262.39Z" fill="black"/>
<path d="M742.035 1262.39C742.035 1278.07 738.502 1308.66 722.822 1308.66C707.143 1308.66 685.254 1278.07 685.254 1262.39C685.254 1246.71 697.965 1234 713.645 1234C729.324 1234 742.035 1246.71 742.035 1262.39Z" fill="black"/>
<path d="M821.035 1262.39C821.035 1278.07 817.502 1308.66 801.822 1308.66C786.143 1308.66 764.254 1278.07 764.254 1262.39C764.254 1246.71 776.965 1234 792.645 1234C808.324 1234 821.035 1246.71 821.035 1262.39Z" fill="black"/>
</svg>
