<svg width="116" height="26" viewBox="0 0 116 26" fill="none" xmlns="http://www.w3.org/2000/svg">
<path d="M15.936 18.856L16.512 18.44C17.2373 18.0133 17.7493 17.8 18.048 17.8C18.7093 17.8 19.424 18.3973 20.192 19.592C20.6613 20.3387 20.896 20.936 20.896 21.384C20.896 21.832 20.7467 22.2053 20.448 22.504C20.1707 22.8027 19.84 23.0693 19.456 23.304C19.072 23.5387 18.6987 23.7627 18.336 23.976C17.9947 24.1893 17.28 24.4667 16.192 24.808C15.104 25.1493 14.048 25.32 13.024 25.32C12.0213 25.32 10.9973 25.192 9.952 24.936C8.928 24.6587 7.86133 24.2107 6.752 23.592C5.664 22.952 4.68267 22.184 3.808 21.288C2.93333 20.3707 2.208 19.208 1.632 17.8C1.07733 16.3707 0.8 14.824 0.8 13.16C0.8 11.496 1.07733 9.992 1.632 8.648C2.18667 7.28267 2.89067 6.16267 3.744 5.288C4.61867 4.392 5.61067 3.64533 6.72 3.048C8.81067 1.896 10.912 1.32 13.024 1.32C14.0267 1.32 15.04 1.48 16.064 1.8C17.1093 2.09867 17.8987 2.408 18.432 2.728L19.2 3.176C19.584 3.41067 19.8827 3.60267 20.096 3.752C20.6507 4.2 20.928 4.712 20.928 5.288C20.928 5.84267 20.704 6.42933 20.256 7.048C19.424 8.2 18.6773 8.776 18.016 8.776C17.632 8.776 17.088 8.54133 16.384 8.072C15.488 7.34667 14.2933 6.984 12.8 6.984C11.4133 6.984 10.048 7.464 8.704 8.424C8.064 8.89333 7.53067 9.55467 7.104 10.408C6.67733 11.2613 6.464 12.232 6.464 13.32C6.464 14.3867 6.67733 15.3467 7.104 16.2C7.53067 17.0533 8.07467 17.7253 8.736 18.216C10.0373 19.1547 11.392 19.624 12.8 19.624C13.4613 19.624 14.08 19.5387 14.656 19.368C15.2533 19.1973 15.68 19.0267 15.936 18.856ZM22.5188 16.584C22.5188 14.024 23.4148 11.912 25.2068 10.248C26.9988 8.584 29.0468 7.752 31.3508 7.752C33.6548 7.752 35.6921 8.584 37.4628 10.248C39.2334 11.8907 40.1188 13.992 40.1188 16.552C40.1188 18.3227 39.6601 19.9013 38.7428 21.288C37.8254 22.6533 36.7054 23.6667 35.3828 24.328C34.0814 24.968 32.7268 25.288 31.3188 25.288C29.9108 25.288 28.5454 24.9467 27.2228 24.264C25.9001 23.56 24.7801 22.536 23.8628 21.192C22.9668 19.8267 22.5188 18.2907 22.5188 16.584ZM29.2068 18.888C29.8894 19.4 30.5828 19.656 31.2868 19.656C31.9908 19.656 32.6948 19.3893 33.3988 18.856C34.1028 18.3227 34.4548 17.5333 34.4548 16.488C34.4548 15.4427 34.1241 14.664 33.4628 14.152C32.8014 13.64 32.0868 13.384 31.3188 13.384C30.5508 13.384 29.8361 13.6507 29.1748 14.184C28.5134 14.7173 28.1828 15.5067 28.1828 16.552C28.1828 17.576 28.5241 18.3547 29.2068 18.888ZM53.4823 1.128C53.6529 0.807999 53.9409 0.583999 54.3463 0.455999C54.7516 0.327998 55.2849 0.263998 55.9463 0.263998C56.6289 0.263998 57.1729 0.327998 57.5783 0.455999C57.9836 0.583999 58.2609 0.807999 58.4103 1.128C58.5809 1.448 58.6769 1.736 58.6983 1.992C58.7409 2.22667 58.7623 2.58933 58.7623 3.08V22.184C58.7623 22.6747 58.7409 23.048 58.6983 23.304C58.6769 23.5387 58.5809 23.8053 58.4103 24.104C58.0903 24.68 57.1836 24.968 55.6903 24.968C54.2183 24.968 53.3969 24.4453 53.2263 23.4C52.3303 24.424 51.0823 24.936 49.4823 24.936C47.5623 24.936 45.8129 24.104 44.2343 22.44C42.6556 20.7547 41.8663 18.8027 41.8663 16.584C41.8663 14.344 42.6556 12.3813 44.2343 10.696C45.8343 9.01067 47.5836 8.168 49.4823 8.168C51.0609 8.168 52.2876 8.70133 53.1623 9.768V3.048C53.1623 2.55733 53.1729 2.19467 53.1943 1.96C53.2369 1.704 53.3329 1.42666 53.4823 1.128ZM48.2983 18.504C48.8529 19.08 49.5249 19.368 50.3142 19.368C51.1036 19.368 51.7543 19.08 52.2663 18.504C52.7996 17.928 53.0663 17.2987 53.0663 16.616C53.0663 15.912 52.8103 15.2613 52.2983 14.664C51.8076 14.0667 51.1356 13.768 50.2823 13.768C49.4289 13.768 48.7463 14.0667 48.2343 14.664C47.7223 15.24 47.4663 15.88 47.4663 16.584C47.4663 17.288 47.7436 17.928 48.2983 18.504ZM72.2553 9.928C72.3833 8.73333 73.2259 8.136 74.7833 8.136C75.6153 8.136 76.2339 8.2 76.6393 8.328C77.0446 8.456 77.3219 8.68 77.4713 9C77.6419 9.32 77.7379 9.608 77.7593 9.864C77.8019 10.0987 77.8233 10.4613 77.8233 10.952V22.152C77.8233 22.6427 77.8019 23.016 77.7593 23.272C77.7379 23.5067 77.6526 23.784 77.5033 24.104C77.2046 24.6587 76.4686 24.936 75.2953 24.936C74.1433 24.936 73.3646 24.7973 72.9593 24.52C72.5753 24.2213 72.3513 23.7947 72.2873 23.24C71.4979 24.3707 70.1753 24.936 68.3193 24.936C66.4846 24.936 64.7779 24.0933 63.1993 22.408C61.6206 20.7227 60.8313 18.7707 60.8313 16.552C60.8313 14.312 61.6206 12.36 63.1993 10.696C64.7993 9.01067 66.5486 8.168 68.4473 8.168C69.1726 8.168 69.8339 8.296 70.4313 8.552C71.0286 8.808 71.4446 9.05333 71.6793 9.288C71.9139 9.50133 72.1059 9.71467 72.2553 9.928ZM66.4313 16.584C66.4313 17.288 66.7086 17.928 67.2633 18.504C67.8179 19.0587 68.4899 19.336 69.2793 19.336C70.0686 19.336 70.7193 19.048 71.2313 18.472C71.7646 17.896 72.0313 17.2667 72.0313 16.584C72.0313 15.88 71.7753 15.2293 71.2633 14.632C70.7726 14.0347 70.1006 13.736 69.2473 13.736C68.4153 13.736 67.7326 14.0347 67.1993 14.632C66.6873 15.2293 66.4313 15.88 66.4313 16.584ZM96.897 8.52C98.0063 9.18133 98.561 9.88533 98.561 10.632C98.561 11.0587 98.3477 11.6453 97.921 12.392L91.297 23.752C91.0837 24.1147 90.7423 24.4453 90.273 24.744C89.8037 25.0213 89.3343 25.16 88.865 25.16C88.417 25.16 87.9797 25.0533 87.553 24.84C87.1477 24.6053 86.8597 24.3707 86.689 24.136L86.401 23.784L79.745 12.392C79.3183 11.688 79.105 11.112 79.105 10.664C79.105 9.896 79.6597 9.18133 80.769 8.52C81.5797 8.05067 82.2197 7.816 82.689 7.816C83.1583 7.816 83.521 7.96533 83.777 8.264C84.0543 8.54133 84.3423 8.968 84.641 9.544L88.833 17.608L93.025 9.544C93.2597 9.13867 93.4303 8.85067 93.537 8.68C93.665 8.488 93.857 8.30667 94.113 8.136C94.369 7.944 94.7103 7.848 95.137 7.848C95.5637 7.848 96.1503 8.072 96.897 8.52ZM110.287 9.928C110.415 8.73333 111.257 8.136 112.815 8.136C113.647 8.136 114.265 8.2 114.671 8.328C115.076 8.456 115.353 8.68 115.503 9C115.673 9.32 115.769 9.608 115.791 9.864C115.833 10.0987 115.855 10.4613 115.855 10.952V22.152C115.855 22.6427 115.833 23.016 115.791 23.272C115.769 23.5067 115.684 23.784 115.535 24.104C115.236 24.6587 114.5 24.936 113.327 24.936C112.175 24.936 111.396 24.7973 110.991 24.52C110.607 24.2213 110.383 23.7947 110.319 23.24C109.529 24.3707 108.207 24.936 106.351 24.936C104.516 24.936 102.809 24.0933 101.231 22.408C99.6518 20.7227 98.8625 18.7707 98.8625 16.552C98.8625 14.312 99.6518 12.36 101.231 10.696C102.831 9.01067 104.58 8.168 106.479 8.168C107.204 8.168 107.865 8.296 108.463 8.552C109.06 8.808 109.476 9.05333 109.711 9.288C109.945 9.50133 110.137 9.71467 110.287 9.928ZM104.463 16.584C104.463 17.288 104.74 17.928 105.295 18.504C105.849 19.0587 106.521 19.336 107.311 19.336C108.1 19.336 108.751 19.048 109.263 18.472C109.796 17.896 110.063 17.2667 110.063 16.584C110.063 15.88 109.807 15.2293 109.295 14.632C108.804 14.0347 108.132 13.736 107.279 13.736C106.447 13.736 105.764 14.0347 105.231 14.632C104.719 15.2293 104.463 15.88 104.463 16.584Z" fill="white"/>
</svg>
